<svg width="12" height="18" viewBox="0 0 12 18" fill="none" xmlns="http://www.w3.org/2000/svg">
<path opacity="0.8" fill-rule="evenodd" clip-rule="evenodd" d="M4.65198 0.658116C2.49409 1.17053 0.668138 3.01795 0.1388 5.22426C-0.108305 6.25429 -0.0205981 7.64645 0.363039 8.78474C0.751095 9.93602 1.87262 12.1904 2.77334 13.6295C4.08641 15.7275 5.56529 17.5 6.00272 17.5C6.68681 17.5 9.17698 14.0524 10.6555 11.0583C11.5943 9.15706 11.9212 8.14934 11.9899 6.94425C12.2191 2.92517 8.5047 -0.256823 4.65198 0.658116ZM7.42239 3.78944C9.13732 4.77453 9.43469 6.94707 8.04142 8.31271C6.89493 9.43628 5.11051 9.43628 3.96402 8.31271C2.42748 6.80665 2.9894 4.32199 5.03595 3.57356C5.68039 3.33776 6.81473 3.44039 7.42239 3.78944Z" fill="url(#paint0_radial_388_2526)"/>
<defs>
<radialGradient id="paint0_radial_388_2526" cx="0" cy="0" r="1" gradientUnits="userSpaceOnUse" gradientTransform="translate(-4.99754 -13.8309) rotate(65.7146) scale(42.977 150.504)">
<stop stop-color="#E92FED"/>
<stop offset="1" stop-color="#971AB6"/>
</radialGradient>
</defs>
</svg>
