<svg width="15" height="10" viewBox="0 0 15 10" fill="none" xmlns="http://www.w3.org/2000/svg">
<path opacity="0.8" fill-rule="evenodd" clip-rule="evenodd" d="M1.04253 0.0243696C0.863742 0.0602424 0.680406 0.137772 0.523085 0.244013C0.440469 0.299819 0.372873 0.352458 0.372873 0.361013C0.372873 0.373854 0.940852 0.905559 1.78649 1.68435C1.87482 1.76568 1.96688 1.85047 1.99107 1.87277C2.01528 1.89506 2.11094 1.98414 2.20368 2.07072C2.29641 2.1573 2.38635 2.2405 2.40357 2.25561C2.42079 2.27072 2.50603 2.34896 2.59299 2.42945C3.29801 3.08201 4.68996 4.36911 4.81393 4.48311C4.89832 4.56069 5.36246 4.99038 5.84535 5.43792C6.32824 5.88549 6.75786 6.27746 6.80005 6.30899C7.21347 6.61782 7.81047 6.61205 8.20653 6.29536C8.27783 6.23837 9.71815 4.90085 10.1411 4.4989C10.2116 4.43185 10.3154 4.33473 10.3717 4.28309C10.6179 4.0571 10.8261 3.86302 11.0797 3.62334C11.1504 3.55657 11.2961 3.41986 11.4037 3.31952C11.5112 3.2192 11.9213 2.83637 12.3152 2.46878C12.709 2.1012 13.1193 1.71852 13.227 1.61838C13.3347 1.51825 13.4882 1.37435 13.5681 1.29861C13.648 1.22287 13.8014 1.07957 13.9088 0.980163C14.2967 0.621331 14.557 0.374387 14.557 0.365127C14.557 0.334435 14.2875 0.163919 14.1478 0.106237C13.8677 -0.00947203 14.3936 -0.00120958 7.44175 0.00104538C2.52109 0.00264623 1.12545 0.00774141 1.04253 0.0243696ZM0.0842638 0.805085C0.00405198 1.00059 0.00833108 0.786391 0.00221077 4.90482C-0.00356858 8.79451 -0.00200014 8.9145 0.0573618 9.11637C0.107245 9.28597 0.0647095 9.3069 0.679741 8.81012C0.984478 8.56397 1.29902 8.30938 1.37872 8.24437C1.45842 8.17935 2.00694 7.73697 2.59767 7.26131C4.66555 5.59619 4.99294 5.33079 4.99294 5.31969C4.99294 5.30802 4.89149 5.21214 3.68875 4.08713C3.0607 3.49969 2.60021 3.06815 2.53104 3.00221C2.52081 2.99243 2.45872 2.93476 2.39309 2.87404C2.32745 2.81331 2.17785 2.67359 2.06065 2.56354C1.94344 2.45349 1.6826 2.20934 1.48101 2.02097C1.27941 1.83261 1.06844 1.63484 1.01218 1.5815C0.596324 1.18722 0.129425 0.756388 0.117985 0.756388C0.110433 0.756388 0.0952429 0.778301 0.0842638 0.805085ZM14.3354 1.23206C13.7365 1.7961 13.7154 1.81584 13.4653 2.0474C13.3579 2.1468 13.2125 2.2831 13.1421 2.35028C13.0717 2.41747 12.9643 2.51884 12.9033 2.57557C12.6631 2.79912 10.8121 4.53202 10.4911 4.83389C10.3036 5.01019 10.1172 5.1854 10.0769 5.22327L10.0037 5.29213L10.9032 5.98066C11.398 6.35936 11.9181 6.75747 12.059 6.86537C12.9157 7.5214 13.1054 7.6666 13.4801 7.95298C14.7246 8.90437 14.9214 9.05326 14.934 9.05326C14.9416 9.05326 14.9596 9.01312 14.974 8.96406C14.9973 8.88493 15.0002 8.43814 15 5.00067L14.9997 1.12648L14.96 0.997342C14.9172 0.85824 14.8705 0.755785 14.8506 0.757386C14.8438 0.757937 14.612 0.971539 14.3354 1.23206ZM9.53554 5.72714C9.47886 5.78137 9.34492 5.90708 9.23791 6.00648C9.1309 6.10589 8.93561 6.28822 8.80393 6.41167C8.46157 6.73263 8.31315 6.83455 8.04386 6.9336C7.73208 7.04828 7.27019 7.05203 6.97053 6.94231C6.70606 6.84548 6.54145 6.73871 6.26718 6.48614C6.15237 6.38041 5.98586 6.22732 5.89716 6.1459C5.80844 6.06449 5.68186 5.94672 5.61587 5.88418C5.47454 5.7503 5.37491 5.66222 5.36478 5.66222C5.35648 5.66222 5.11252 5.85506 4.05679 6.69614C3.69063 6.98786 2.15458 8.20899 1.92426 8.39147C1.7883 8.4992 1.5917 8.65537 1.48738 8.73853C1.38305 8.82169 1.08927 9.05524 0.834522 9.25752C0.579787 9.45981 0.37422 9.63401 0.377732 9.64461C0.389308 9.67969 0.617907 9.82649 0.744456 9.88011C0.812871 9.90909 0.938925 9.94793 1.02456 9.9664C1.17738 9.99938 1.29656 10 7.45758 10C13.6289 10 13.7376 9.99943 13.8945 9.96623C14.1242 9.9176 14.2988 9.84071 14.4647 9.71507C14.574 9.63234 14.6934 9.51585 14.6934 9.49201C14.6934 9.48165 14.5994 9.40287 14.4845 9.31694C14.3697 9.23099 14.1606 9.07238 14.02 8.96446C13.8793 8.85653 13.4344 8.51718 13.0312 8.21035C12.628 7.90351 12.16 7.54688 11.9912 7.41783C11.8225 7.28878 11.389 6.95847 11.028 6.68383C10.667 6.40919 10.2082 6.05923 10.0084 5.90613C9.80853 5.75305 9.64359 5.62796 9.64182 5.62817C9.64003 5.62837 9.59221 5.67291 9.53554 5.72714Z" fill="url(#paint0_radial_388_2546)"/>
<defs>
<radialGradient id="paint0_radial_388_2546" cx="0" cy="0" r="1" gradientUnits="userSpaceOnUse" gradientTransform="translate(-6.24693 -8.42995) rotate(46.2043) scale(31.9245 148.978)">
<stop stop-color="#E92FED"/>
<stop offset="1" stop-color="#971AB6"/>
</radialGradient>
</defs>
</svg>
