<svg width="15" height="16" viewBox="0 0 15 16" fill="none" xmlns="http://www.w3.org/2000/svg">
<path opacity="0.8" fill-rule="evenodd" clip-rule="evenodd" d="M8.09039 0.516521C8.02262 0.539285 7.93773 0.612907 7.89937 0.682211C7.87203 0.731573 7.86748 0.753449 7.86745 0.835356C7.86743 0.91281 7.87247 0.939902 7.89404 0.978371C7.96309 1.1015 8.03911 1.14676 8.24878 1.18954C8.60577 1.26238 9.12148 1.41193 9.46517 1.54226C11.0729 2.15195 12.3769 3.20622 13.2278 4.58443C13.7854 5.48756 14.133 6.5197 14.2473 7.61154C14.2678 7.8073 14.2875 8.28302 14.285 8.52461C14.2835 8.66939 14.2862 8.69343 14.3087 8.73958C14.3686 8.86228 14.4935 8.94262 14.6266 8.94393C14.7576 8.94522 14.8568 8.89935 14.93 8.80352C15.0008 8.71091 15.0044 8.67948 14.9977 8.2108C14.9912 7.75725 14.9766 7.56994 14.9168 7.17083C14.6223 5.20514 13.6149 3.46144 12.0563 2.21938C11.1033 1.45988 9.9674 0.905705 8.72699 0.595021C8.34819 0.500142 8.1953 0.48129 8.09039 0.516521ZM3.03531 2.0054C2.84423 2.01929 2.68074 2.04653 2.43461 2.10545C1.72297 2.27587 1.22741 2.56889 0.799284 3.07243C0.454397 3.47805 0.236732 3.90513 0.105988 4.43267C0.0351845 4.71839 0.0107415 4.90722 0.00194141 5.23644C-0.00710771 5.57469 0.0141215 5.79286 0.0943658 6.18636C0.321673 7.30095 0.995423 8.63441 2.05393 10.0647C2.50346 10.6721 3.00883 11.2658 3.76195 12.0711C4.4139 12.7683 5.11914 13.4054 5.78573 13.8995C6.3145 14.2914 7.13267 14.8003 7.56155 15.004C8.32092 15.3647 9.13648 15.531 9.96979 15.4952C10.2835 15.4817 10.4535 15.4618 10.6576 15.4146C11.3242 15.2605 11.8943 14.8976 12.3513 14.3365C12.6794 13.9338 12.9218 13.4222 13.0091 12.9482C13.0395 12.7833 13.0529 12.4618 13.0335 12.364C13.0028 12.2095 12.896 12.0706 12.7195 11.9553C12.4319 11.7675 11.6351 11.4 11.0074 11.1656C10.8718 11.115 10.6761 11.0384 10.5725 10.9954C10.3216 10.8912 10.235 10.8606 9.87147 10.7472C9.50539 10.6331 9.44264 10.6203 9.33269 10.6379C9.08037 10.6782 8.77378 10.9682 8.50159 11.4239C8.37912 11.629 8.22712 11.7921 8.10205 11.8526C8.02441 11.8902 7.87883 11.8907 7.76633 11.8537C7.57395 11.7905 7.45776 11.7239 7.0658 11.4522C6.49592 11.0571 6.28325 10.9018 6.11188 10.7556C5.42426 10.1691 5.0173 9.72764 4.55789 9.06983C4.31796 8.72628 4.20032 8.53426 4.00689 8.1705C3.7286 7.64714 3.61191 7.37872 3.56218 7.14752C3.51843 6.94411 3.51196 6.85155 3.53709 6.78917C3.58368 6.67353 3.75455 6.57354 4.20275 6.39969C4.59657 6.24693 4.73502 6.17376 4.89361 6.03457C5.03988 5.90622 5.09901 5.79472 5.09874 5.64783C5.09842 5.47353 4.92639 4.56206 4.79727 4.05045C4.77465 3.9608 4.73125 3.77616 4.70085 3.64014C4.62899 3.31864 4.52731 2.92618 4.48093 2.79139C4.42609 2.63198 4.31615 2.42915 4.22649 2.32196C4.142 2.22095 4.04583 2.14722 3.92036 2.08724C3.80592 2.03254 3.73065 2.01744 3.50862 2.00468C3.29099 1.99218 3.21583 1.9923 3.03531 2.0054ZM8.01187 2.49284C7.75375 2.58012 7.68336 2.89286 7.88331 3.06408C7.95117 3.1222 7.97592 3.13206 8.18143 3.18286C8.8546 3.34926 9.52573 3.65741 10.0782 4.05375C11.0257 4.73357 11.698 5.69361 12.0004 6.79903C12.111 7.20306 12.1622 7.55123 12.1765 7.99644C12.1844 8.24271 12.1855 8.25128 12.2175 8.31325C12.2561 8.38819 12.3128 8.43865 12.4013 8.47707C12.4566 8.50108 12.4778 8.50418 12.556 8.49975C12.6988 8.49166 12.8042 8.42552 12.867 8.30454C12.8948 8.25094 12.8957 8.24157 12.8947 8.0075C12.8935 7.74019 12.8797 7.56973 12.8359 7.27999C12.6046 5.74975 11.7738 4.40537 10.5 3.50007C9.85997 3.04514 9.13134 2.7105 8.37077 2.52216C8.17609 2.47395 8.08883 2.46683 8.01187 2.49284ZM7.89585 4.55759C7.7822 4.57343 7.67915 4.64547 7.62779 4.74499C7.56346 4.86962 7.59368 5.0327 7.69975 5.13323C7.75922 5.1896 7.79016 5.20282 7.96731 5.24753C8.17645 5.3003 8.32236 5.35237 8.51944 5.44454C9.3119 5.81518 9.84189 6.49477 9.99657 7.33862C10.0118 7.42168 10.0249 7.56029 10.0306 7.69928C10.0391 7.90612 10.0424 7.93021 10.0697 7.98669C10.1048 8.05953 10.1675 8.12062 10.2436 8.15611C10.2876 8.17671 10.3183 8.18174 10.3992 8.18174C10.4888 8.18174 10.5071 8.17803 10.5636 8.14838C10.6428 8.10682 10.7003 8.04416 10.7312 7.96582C10.7782 7.84688 10.7565 7.44742 10.6848 7.11054C10.4369 5.94588 9.56129 5.01452 8.36998 4.64829C8.10259 4.5661 7.98974 4.5445 7.89585 4.55759Z" fill="url(#paint0_radial_388_2535)"/>
<defs>
<radialGradient id="paint0_radial_388_2535" cx="0" cy="0" r="1" gradientUnits="userSpaceOnUse" gradientTransform="translate(-6.24693 -12.1449) rotate(57.4127) scale(41.0235 173.902)">
<stop stop-color="#E92FED"/>
<stop offset="1" stop-color="#971AB6"/>
</radialGradient>
</defs>
</svg>
