<svg width="34" height="34" viewBox="0 0 34 34" fill="none" xmlns="http://www.w3.org/2000/svg">
<path fill-rule="evenodd" clip-rule="evenodd" d="M0.168286 0.168286L0 0.336504V2.19355V4.05059L0.168286 4.21881C0.306411 4.357 0.404435 4.3871 0.716673 4.3871H1.09677V13.1613V21.9355H0.716673C0.404435 21.9355 0.306411 21.9656 0.168286 22.1038L0 22.272V24.129V25.9861L0.168286 26.1543L0.336504 26.3226H4.55538H8.77419V27.9677V29.6129H8.1199C7.51654 29.6129 7.45244 29.626 7.29732 29.7812L7.12903 29.9494V31.8065V33.6635L7.29732 33.8317L7.46554 34H9.32258H11.1796L11.3478 33.8317L11.5161 33.6635V31.8065V29.9494L11.3478 29.7812C11.1927 29.626 11.1286 29.6129 10.5253 29.6129H9.87097V27.9677V26.3226L15.8175 26.3233L21.7641 26.3241L21.5242 26.5059C20.8096 27.0476 20.0305 28.0571 19.6903 28.8822C19.2884 29.8571 19.2439 30.1425 19.2107 31.9569L19.1798 33.6497L19.3549 33.8249L19.5301 34H25.2258H30.9216L31.0967 33.8249L31.2718 33.6497L31.2409 31.9569C31.2149 30.5321 31.1882 30.1882 31.0727 29.7843C30.6945 28.4627 30.0517 27.4353 29.1154 26.6561L28.7146 26.3226H31.1891H33.6635L33.8317 26.1543L34 25.9861V24.129V22.272L33.8317 22.1038C33.6766 21.9486 33.6125 21.9355 33.0091 21.9355H32.3548V13.1613V4.3871H33.0091C33.6125 4.3871 33.6766 4.374 33.8317 4.21881L34 4.05059V2.19355V0.336504L33.8317 0.168286L33.6635 0H17H0.336504L0.168286 0.168286ZM32.9032 2.19355V3.29032H17H1.09677V2.19355V1.09677H17H32.9032V2.19355ZM31.2581 13.1613V21.9355H30.72H30.1819L30.1417 21.1986C30.0378 19.2912 29.0608 17.7889 27.3851 16.9596C26.6613 16.6013 26.0319 16.454 25.2258 16.454C24.4197 16.454 23.7903 16.6013 23.0665 16.9596C21.3909 17.7888 20.4059 19.3027 20.3087 21.1986L20.2709 21.9355H11.2322H2.19355V13.1613V4.3871H16.7258H31.2581V13.1613ZM3.45861 5.65216L3.29032 5.82037V7.67742V9.53446L3.45861 9.70268L3.62683 9.87097H10.4194H17.2119L17.3801 9.70268L17.5484 9.53446V7.67742V5.82037L17.3801 5.65216L17.2119 5.48387H10.4194H3.62683L3.45861 5.65216ZM24.2661 5.5819C22.7877 5.89578 21.4986 6.87273 20.8482 8.1722C20.4283 9.0113 20.325 9.47455 20.3319 10.4879C20.3369 11.2182 20.3644 11.4258 20.518 11.8931C20.776 12.6787 21.1364 13.2538 21.7639 13.8813C22.6612 14.7786 23.6615 15.2449 24.8737 15.3309C27.8511 15.5423 30.3294 13.0738 30.1369 10.0883C30.0898 9.35713 29.8366 8.5305 29.4666 7.89945C29.1353 7.3344 28.2338 6.44979 27.6707 6.13707C26.6602 5.57593 25.3219 5.35767 24.2661 5.5819ZM16.4516 7.67742V8.77419H10.4194H4.3871V7.67742V6.58065H10.4194H16.4516V7.67742ZM25.9501 6.65392C26.6117 6.77306 27.4151 7.20094 27.9138 7.69963C28.6825 8.46833 29.0283 9.31202 29.0283 10.4194C29.0283 11.5189 28.6822 12.3707 27.9296 13.1232C27.1772 13.8757 26.3254 14.2218 25.2258 14.2218C24.1185 14.2218 23.2748 13.876 22.5061 13.1073C20.8859 11.4871 21.074 8.77509 22.9027 7.38876C23.803 6.70629 24.8454 6.45493 25.9501 6.65392ZM25.5524 9.85246L24.1314 11.2734L23.8023 10.9492C23.6212 10.7709 23.4422 10.625 23.4043 10.625C23.3141 10.625 22.6895 11.2601 22.6895 11.3518C22.6895 11.3908 22.9632 11.6906 23.2976 12.0178C24.1944 12.8953 24.0032 12.9713 26.0624 10.9182C26.9972 9.98606 27.7621 9.19056 27.7621 9.15046C27.7621 9.0599 27.1308 8.43145 27.0398 8.43145C27.0033 8.43145 26.334 9.07087 25.5524 9.85246ZM3.45861 11.136L3.29032 11.3042V13.1613V15.0183L3.45861 15.1866L3.62683 15.3548H5.48387H7.34092L7.50913 15.1866L7.67742 15.0183V13.1613V11.3042L7.50913 11.136L7.34092 10.9677H5.48387H3.62683L3.45861 11.136ZM8.77419 12.0645V12.6129H13.1613H17.5484V12.0645V11.5161H13.1613H8.77419V12.0645ZM6.58065 13.1613V14.2581H5.48387H4.3871V13.1613V12.0645H5.48387H6.58065V13.1613ZM8.77419 14.2581V14.8065H13.1613H17.5484V14.2581V13.7097H13.1613H8.77419V14.2581ZM3.45861 16.6199L3.29032 16.7881V18.6452V20.5022L3.45861 20.6704L3.62683 20.8387H5.48387H7.34092L7.50913 20.6704L7.67742 20.5022V18.6452V16.7881L7.50913 16.6199L7.34092 16.4516H5.48387H3.62683L3.45861 16.6199ZM8.77419 17.5484V18.0968H13.1613H17.5484V17.5484V17H13.1613H8.77419V17.5484ZM6.58065 18.6452V19.7419H5.48387H4.3871V18.6452V17.5484H5.48387H6.58065V18.6452ZM26.4679 17.7707C27.1056 18.0033 27.5052 18.2533 27.9316 18.6866C28.2485 19.0086 28.6532 19.5784 28.6532 19.7027C28.6532 19.7243 27.832 19.7419 26.8283 19.7419H25.0034L24.4416 20.2903L23.8797 20.8387H22.6677C21.2691 20.8387 21.3409 20.887 21.6153 20.131C21.8392 19.5139 22.0922 19.1084 22.5197 18.6809C23.0499 18.1507 23.7426 17.7784 24.506 17.6135C24.9873 17.5095 25.967 17.588 26.4679 17.7707ZM8.77419 19.7419V20.2903H13.1613H17.5484V19.7419V19.1935H13.1613H8.77419V19.7419ZM29.0505 21.2946C29.0936 22.1934 28.6869 23.2513 28.0272 23.9563C26.5981 25.4833 24.1966 25.5943 22.6749 24.2036C22.1797 23.7511 21.8338 23.2391 21.6267 22.6522C21.3515 21.8719 21.2382 21.9355 22.9043 21.9355H24.3529L24.9093 21.3874L25.4657 20.8393L27.248 20.8561L29.0302 20.873L29.0505 21.2946ZM20.7321 23.4074C20.95 23.8999 21.2603 24.3476 21.7195 24.8317L22.0934 25.2258H11.5951H1.09677V24.129V23.0323H10.8315H20.5662L20.7321 23.4074ZM32.9032 24.129V25.2258H30.6307H28.3582L28.7383 24.8273C29.1555 24.3898 29.5469 23.8147 29.7507 23.3391L29.8822 23.0323H31.3927H32.9032V24.129ZM25.7742 27.5768V28.831L25.5 29.0988L25.2258 29.3665L24.9516 29.0988L24.6774 28.831V27.5768V26.3226H25.2258H25.7742V27.5768ZM24.307 30.0269C25.2373 30.9448 25.2233 30.945 26.1648 30.0035L26.871 29.2972V27.9479V26.5985L27.2563 26.7689C28.3301 27.2438 29.3322 28.2796 29.7761 29.3735C30.0566 30.0647 30.1613 30.7436 30.1613 31.8721V32.9032H25.2258H20.2903V31.881C20.2903 31.2838 20.3307 30.6478 20.3874 30.3515C20.6832 28.8056 21.6398 27.5572 23.0872 26.8286L23.5464 26.5975L23.5806 27.9708L23.6149 29.3442L24.307 30.0269ZM10.4194 31.8065V32.9032H9.32258H8.22581V31.8065V30.7097H9.32258H10.4194V31.8065Z" fill="#C7C7C7"/>
</svg>
