<svg width="34" height="34" viewBox="0 0 34 34" fill="none" xmlns="http://www.w3.org/2000/svg">
<path fill-rule="evenodd" clip-rule="evenodd" d="M14.2364 0.157574C14.0603 0.300132 14.0268 0.462452 13.884 1.86189C13.7971 2.71258 13.7251 3.46921 13.7238 3.54333C13.7222 3.63265 13.5708 3.7167 13.2743 3.79264C12.6223 3.95979 11.5432 4.39825 10.6797 4.84707L9.92464 5.23945L9.12644 4.57913C7.46291 3.20299 7.33054 3.1066 7.10376 3.1066C6.92592 3.1066 6.49955 3.48258 5.08497 4.88694C4.09866 5.86621 3.2461 6.77765 3.19027 6.91236C3.06057 7.22543 3.12451 7.33036 4.33001 8.78149L5.25048 9.88951L4.71047 10.9795C4.41345 11.579 4.0606 12.4352 3.92625 12.8822L3.68213 13.695L2.07943 13.8456C0.418061 14.0016 0.23728 14.0448 0.0893766 14.3212C-0.0297922 14.5439 -0.0297922 19.4561 0.0893766 19.6788C0.23728 19.9552 0.418061 19.9984 2.07943 20.1544L3.68213 20.305L3.9303 21.1335C4.06682 21.5891 4.42009 22.4449 4.71538 23.0352L5.2522 24.1084L4.33087 25.2175C3.12443 26.6697 3.06057 26.7745 3.19027 27.0876C3.2461 27.2223 4.09866 28.1338 5.08497 29.1131C6.49955 30.5174 6.92592 30.8934 7.10376 30.8934C7.33045 30.8934 7.46308 30.7968 9.1248 29.4223L9.92136 28.7633L10.9801 29.2919C11.5624 29.5825 12.4029 29.9356 12.8479 30.0765C13.2929 30.2173 13.6718 30.3713 13.6897 30.4188C13.7077 30.4662 13.7944 31.2205 13.8822 32.095C14.0273 33.5382 14.06 33.6996 14.2365 33.8425C14.4151 33.9872 14.643 34 17.037 34C19.4816 34 19.654 33.9898 19.8197 33.8354C20.0127 33.6555 20.0396 33.5035 20.2046 31.6505C20.2627 30.9989 20.3324 30.4342 20.3596 30.3957C20.3868 30.357 20.8168 30.1934 21.3151 30.0319C21.8135 29.8705 22.6521 29.5199 23.1788 29.2529L24.1364 28.7675L25.3634 29.7833C26.6171 30.8213 26.8091 30.9415 27.0775 30.8564C27.1618 30.8295 28.0549 29.9803 29.0622 28.969C30.4915 27.534 30.8935 27.0819 30.8935 26.9094C30.8935 26.6629 30.8546 26.6079 29.6654 25.1738C29.2018 24.6147 28.8225 24.1334 28.8225 24.1042C28.8225 24.075 29.0534 23.5811 29.3357 23.0065C29.6179 22.432 29.969 21.5893 30.1158 21.1339L30.3829 20.3059L31.9492 20.1573C33.5706 20.0034 33.7631 19.9564 33.9117 19.6788C33.9662 19.577 34 18.5353 34 16.9586C34 14.4097 33.9995 14.4028 33.8022 14.2055C33.5887 13.992 33.5238 13.9806 31.4904 13.7979L30.3183 13.6926L30.0705 12.8653C29.9341 12.4103 29.581 11.5551 29.2857 10.9648L28.7489 9.89158L29.6702 8.78253C30.874 7.33347 30.9404 7.225 30.8121 6.91537C30.6679 6.56718 27.1698 3.10651 26.9626 3.10694C26.7256 3.10738 26.4261 3.31664 25.2018 4.33707L24.1268 5.23315L23.167 4.74809C22.6392 4.48127 21.8028 4.12901 21.3082 3.96523C20.8137 3.80153 20.3868 3.63748 20.3596 3.60081C20.3324 3.56413 20.2627 3.00106 20.2046 2.34954C20.0396 0.496451 20.0127 0.344487 19.8197 0.164564C19.654 0.0101829 19.4816 0 17.037 0C14.6424 0 14.4152 0.0127716 14.2364 0.157574ZM18.9282 1.70431C18.9565 1.97718 19.0256 2.67823 19.0815 3.2621C19.1971 4.46867 19.3039 4.68967 19.8189 4.78623C20.729 4.95701 22.5985 5.73642 23.5721 6.3511C24.164 6.72475 24.304 6.67082 25.646 5.55244L26.8531 4.54642L28.1534 5.84679L29.4537 7.14716L28.4596 8.34139C27.913 8.99818 27.4377 9.62459 27.4036 9.73341C27.3562 9.88451 27.4545 10.1293 27.8195 10.7689C28.3942 11.776 28.7422 12.6014 29.0801 13.7588C29.2189 14.2344 29.3932 14.668 29.4674 14.7222C29.6198 14.8337 29.922 14.8767 31.6054 15.0267L32.7919 15.1324V16.998V18.8635L31.2171 19.0148C29.9951 19.1322 29.6091 19.199 29.4944 19.3128C29.413 19.3934 29.2496 19.7939 29.1314 20.2026C28.8145 21.2983 28.4383 22.2035 27.9109 23.1398C27.6529 23.5979 27.4418 24.0655 27.4418 24.179C27.4418 24.3157 27.7772 24.7882 28.4342 25.577C28.98 26.2323 29.4265 26.7942 29.4265 26.8257C29.4265 26.8572 28.8483 27.4602 28.1416 28.1657L26.8566 29.4486L25.6358 28.4451C24.7144 27.6877 24.355 27.4416 24.1704 27.4416C24.0326 27.4416 23.6352 27.6163 23.2609 27.8413C22.4531 28.3268 21.0029 28.9281 20.1643 29.1253C19.2687 29.336 19.2071 29.4273 19.0821 30.7318C19.0258 31.319 18.9565 32.0227 18.9282 32.2957L18.8767 32.7919H17.0342C15.1926 32.7919 15.1917 32.7918 15.1527 32.5977C15.1313 32.4909 15.0535 31.7647 14.9797 30.984C14.8929 30.0649 14.8046 29.5233 14.7291 29.4478C14.665 29.3837 14.2276 29.2191 13.7571 29.0821C12.6408 28.7569 11.7779 28.3966 10.8738 27.8778C10.1565 27.4663 10.0164 27.4106 9.75136 27.4314C9.67983 27.437 9.08079 27.8882 8.42014 28.434C7.75958 28.9798 7.19627 29.4264 7.16848 29.4264C7.1407 29.4264 6.53976 28.8472 5.83303 28.1392L4.54807 26.8521L5.54171 25.6583C6.08828 25.0016 6.56341 24.3754 6.59749 24.2666C6.64486 24.1155 6.54658 23.8707 6.18157 23.2311C5.60816 22.2262 5.25894 21.3987 4.92369 20.2505C4.78632 19.7798 4.63556 19.3564 4.58862 19.3095C4.46635 19.1872 3.9316 19.1026 2.48198 18.9764L1.20918 18.8656V17V15.1344L2.48198 15.0236C3.9316 14.8973 4.46635 14.8128 4.58862 14.6905C4.63556 14.6436 4.78813 14.2139 4.92783 13.7356C5.24625 12.6447 5.66779 11.6552 6.22626 10.6875C6.55832 10.1122 6.6459 9.88779 6.59809 9.73522C6.56358 9.62536 6.08828 8.99835 5.54171 8.34174L4.54807 7.14794L5.83303 5.86077C6.53976 5.15281 7.1407 4.5736 7.16848 4.5736C7.19627 4.5736 7.75958 5.02018 8.42014 5.56599C9.79296 6.70024 9.85112 6.71888 10.6037 6.26592C10.8709 6.10516 11.3362 5.85016 11.6375 5.6994C12.209 5.41359 14.092 4.74964 14.3375 4.74749C14.4153 4.7468 14.5618 4.67828 14.6629 4.59518C14.8253 4.46185 14.8624 4.27761 14.9803 3.0203C15.0537 2.23718 15.1313 1.50903 15.1527 1.40228C15.1917 1.20821 15.1926 1.20812 17.0342 1.20812H18.8767L18.9282 1.70431ZM15.993 7.07804C13.1488 7.36833 10.3337 9.0541 8.78809 11.3924C7.59338 13.1999 7.07701 14.8946 7.07701 17.0083C7.07701 22.1951 10.9637 26.4337 16.1655 26.9197C19.0634 27.1904 21.8392 26.192 23.9503 24.1193C25.6263 22.4738 26.5358 20.7028 26.8809 18.4127C27.0446 17.3271 27.0434 16.6841 26.8759 15.5555C26.2571 11.3879 23.1282 8.07509 19.0284 7.24675C18.0497 7.04896 16.9024 6.98519 15.993 7.07804ZM17.7934 8.28556C21.5012 8.63721 24.5575 11.2243 25.5005 14.8092C26.246 17.6435 25.4702 20.7411 23.4779 22.8861C22.6391 23.7891 21.9 24.3415 20.8405 24.8573C19.798 25.3648 18.953 25.6042 17.8307 25.7105C14.4432 26.031 11.2082 24.3735 9.48265 21.4334C8.65434 20.0219 8.28734 18.661 8.28734 17C8.28734 12.5041 11.6241 8.78063 16.0945 8.28797C16.4267 8.25139 16.7374 8.21618 16.7848 8.20979C16.8323 8.20332 17.2861 8.23749 17.7934 8.28556ZM18.99 15.5546C18.1089 16.4207 17.0494 17.4577 16.6356 17.8589L15.8832 18.5882L14.6393 17.3627C13.2818 16.0251 13.0894 15.9233 12.701 16.3367C12.3322 16.7294 12.4085 16.851 14.0521 18.4879C15.4121 19.8425 15.6232 20.0203 15.8706 20.0203C16.1208 20.0203 16.4253 19.7529 18.7383 17.5019C20.1616 16.1167 21.3624 14.9155 21.4069 14.8324C21.6245 14.4258 21.3421 13.9797 20.8673 13.9797C20.6264 13.9797 20.3922 14.1762 18.99 15.5546Z" fill="#C7C7C7"/>
</svg>
