<svg width="24" height="34" viewBox="0 0 24 34" fill="none" xmlns="http://www.w3.org/2000/svg">
<path fill-rule="evenodd" clip-rule="evenodd" d="M10.425 0.0377899C10.3264 0.0615204 9.92318 0.142998 9.5289 0.218882C7.43207 0.62239 5.31812 1.76127 3.65266 3.38469C0.433397 6.52244 -0.756511 10.9773 0.478469 15.2685C0.884843 16.6805 1.31917 17.7609 2.22314 19.6083C4.08645 23.4163 6.80203 27.5389 10.5753 32.288C11.3234 33.2296 11.9597 34 11.9893 34C12.0561 34 13.6687 32.0361 14.6936 30.7066C19.0852 25.0097 22.2983 19.4359 23.4594 15.5005C23.8415 14.2052 24.0001 13.1739 24 11.9839C23.9996 6.38204 20.0256 1.45413 14.5022 0.20616C13.8503 0.0588139 10.8517 -0.0649821 10.425 0.0377899ZM13.7452 1.74611C17.2671 2.36455 20.3332 4.85959 21.5836 8.12447C22.1218 9.52963 22.2504 10.2562 22.2511 11.8937C22.2516 13.2124 22.2241 13.4916 22.0112 14.338C21.3626 16.916 19.6546 20.4068 17.1787 24.215C15.9196 26.1516 13.6194 29.3208 12.1499 31.1437L11.9931 31.3382L11.811 31.1126C11.1729 30.3225 8.63613 26.8756 7.85869 25.7422C4.83361 21.3322 2.77531 17.3344 2.0295 14.4201C1.10062 10.7908 2.16006 7.12824 4.9087 4.46655C6.3806 3.04119 8.17716 2.11407 10.17 1.75153C11.1177 1.5791 12.7799 1.57666 13.7452 1.74611ZM10.8203 7.60276C8.87763 8.14234 7.4301 10.0368 7.42445 12.0471C7.41854 14.1282 8.95415 16.0476 11.0167 16.5372C12.0247 16.7764 12.9963 16.6564 14.0383 16.1637C14.6559 15.8717 15.6991 14.8453 16.0465 14.1877C17.4125 11.6023 15.9709 8.36205 13.1132 7.59482C12.5589 7.44603 11.3698 7.45009 10.8203 7.60276ZM13.0398 9.38111C13.7437 9.6462 14.4065 10.3181 14.6756 11.0393C15.1956 12.4322 14.5289 14.0306 13.158 14.6774C12.7644 14.8631 12.5299 14.9097 11.9931 14.9087C11.1692 14.9072 10.6641 14.7005 10.0343 14.1074C9.41537 13.5245 9.17566 12.9461 9.17271 12.029C9.16993 11.147 9.3944 10.6169 10.0391 9.98285C10.8243 9.21075 11.9752 8.97994 13.0398 9.38111Z" fill="#C7C7C7"/>
</svg>
