<svg width="21" height="30" viewBox="0 0 21 30" fill="none" xmlns="http://www.w3.org/2000/svg">
<path fill-rule="evenodd" clip-rule="evenodd" d="M8.0515 0.279029C4.31669 1.18329 1.15639 4.44344 0.240231 8.33693C-0.187452 10.1546 -0.0356506 12.6114 0.628337 14.6201C1.29997 16.6518 3.24108 20.6301 4.80001 23.1696C7.07263 26.8721 9.63222 30 10.3893 30C11.5733 30 15.8832 23.9161 18.4422 18.6323C20.0671 15.2772 20.6329 13.4988 20.7518 11.3722C21.1485 4.2797 14.7197 -1.33557 8.0515 0.279029ZM12.8464 5.80489C15.8146 7.54329 16.3293 11.3772 13.9178 13.7871C11.9335 15.7699 8.84511 15.7699 6.8608 13.7871C4.20141 11.1294 5.17397 6.74469 8.71606 5.42393C9.83144 5.00781 11.7947 5.18893 12.8464 5.80489Z" fill="url(#paint0_radial_153_1878)"/>
<defs>
<radialGradient id="paint0_radial_153_1878" cx="0" cy="0" r="1" gradientUnits="userSpaceOnUse" gradientTransform="translate(-8.6496 -25.2898) rotate(66.129) scale(75.5971 261.331)">
<stop stop-color="#E92FED"/>
<stop offset="1" stop-color="#971AB6"/>
</radialGradient>
</defs>
</svg>
