<svg width="20" height="20" viewBox="0 0 20 20" fill="none" xmlns="http://www.w3.org/2000/svg">
<path id="&#208;&#152;&#208;&#186;&#208;&#190;&#208;&#189;&#208;&#186;&#208;&#176; &#209;&#133;&#208;&#190;&#208;&#178;&#208;&#181;&#209;&#128; (&#208;&#191;&#209;&#128;&#208;&#184; &#208;&#189;&#208;&#176;&#208;&#178;&#208;&#181;&#208;&#180;&#208;&#181;&#208;&#189;&#208;&#184;&#208;&#184;) " fill-rule="evenodd" clip-rule="evenodd" d="M5.20531 0.0106614C4.22736 0.142474 3.33829 0.480989 2.52948 1.02942C2.07485 1.33771 1.3326 2.08059 1.02457 2.5356C0.579244 3.1934 0.255902 3.94229 0.086347 4.7085L0 5.09876V9.98284C0 14.557 0.00443977 14.8887 0.0697358 15.2103C0.555629 17.6023 2.33317 19.4032 4.72688 19.9286C5.03495 19.9962 5.31409 20 9.98961 20H14.927L15.3243 19.911C17.5058 19.4221 19.2105 17.8132 19.8028 15.6839C20.007 14.9502 20.0026 15.0777 19.999 10.0243C19.9969 6.98088 19.9817 5.2336 19.9557 5.04621C19.7306 3.42665 18.7653 1.90281 17.3766 0.974837C16.7589 0.562122 16.0699 0.270648 15.2823 0.0889216C14.9301 0.00771178 14.8847 0.00690736 10.1236 0.00108477C7.48168 -0.00217128 5.26846 0.00215735 5.20531 0.0106614ZM15.2939 1.02506C17.0466 1.50933 18.325 2.70606 18.8681 4.37094C19.1065 5.10164 19.0989 4.91501 19.0989 10.0212C19.0989 14.3649 19.0943 14.6984 19.0294 15.0202C18.6196 17.0542 17.1404 18.567 15.1086 19.0301C14.7369 19.1149 14.7211 19.1152 10.2575 19.1288C7.13453 19.1384 5.66361 19.1296 5.39668 19.0998C3.24444 18.8599 1.6084 17.4434 1.0202 15.3107L0.918967 14.9435L0.908174 10.1552C0.89761 5.45137 0.898835 5.35959 0.976532 4.95316C1.25046 3.52004 2.12116 2.29549 3.3962 1.5502C3.78426 1.32335 4.38655 1.0955 4.85966 0.996518L5.28186 0.908183L10.1044 0.915959L14.927 0.923697L15.2939 1.02506ZM15.1392 3.6823C14.9072 3.78669 14.7491 3.93513 14.6553 4.13662C14.3657 4.75914 14.7843 5.42916 15.4628 5.42916C15.7535 5.42916 15.9428 5.34435 16.1402 5.12569C16.3141 4.93309 16.375 4.74558 16.3548 4.46559C16.3215 4.00523 15.9666 3.65744 15.5066 3.63454C15.3535 3.62691 15.2253 3.64358 15.1392 3.6823ZM9.14757 5.06134C8.08282 5.25754 7.13024 5.76859 6.39082 6.54028C5.66173 7.30116 5.22284 8.17646 5.05057 9.21319C4.96434 9.73217 4.99048 10.6552 5.10442 11.1129C5.48192 12.6297 6.41612 13.8123 7.77861 14.4979C8.35441 14.7876 8.89921 14.9389 9.58363 14.999C11.7486 15.1891 13.8234 13.9061 14.6383 11.8733C15.2608 10.3202 15.0751 8.57818 14.1408 7.20593C13.4159 6.14128 12.393 5.43701 11.0996 5.11209C10.6851 5.00802 9.59136 4.97955 9.14757 5.06134ZM10.3741 5.92603C11.3815 6.02751 12.3178 6.48427 12.9829 7.19861C14.2825 8.59458 14.4568 10.6695 13.4097 12.2812C13.2078 12.5921 12.5908 13.2131 12.2861 13.4122C10.6625 14.473 8.5898 14.3045 7.18857 12.9978C5.7436 11.6502 5.48066 9.41553 6.57144 7.75295C7.24246 6.73012 8.35162 6.05497 9.57261 5.92615C9.7388 5.9086 9.89331 5.89194 9.91597 5.88914C9.93862 5.88635 10.1448 5.90293 10.3741 5.92603Z" fill="url(#paint0_radial_384_1706)"/>
<defs>
<radialGradient id="paint0_radial_384_1706" cx="0" cy="0" r="1" gradientUnits="userSpaceOnUse" gradientTransform="translate(-8.32924 -16.8599) rotate(57.4127) scale(54.698 231.87)">
<stop stop-color="#E92FED"/>
<stop offset="1" stop-color="#971AB6"/>
</radialGradient>
</defs>
</svg>
