<svg width="196" height="98" viewBox="0 0 196 98" fill="none" xmlns="http://www.w3.org/2000/svg">
<g clip-path="url(#clip0_384_1667)">
<path d="M152.723 4.44482V0.642637H155.959V4.44482H152.723ZM194.229 29.6678H195.875V31.5778H194.229V29.6678ZM171.554 3.85575H173.163V5.71222H171.554V3.85575ZM189.83 14.5661H191.44V16.4226H189.83V14.5661ZM188.578 26.8295H190.188V28.686H188.578V26.8295ZM185.699 16.8867H188.918V20.6175H185.699V16.8867ZM176.203 30.9709H179.404V34.6838H176.203V30.9709ZM157.05 67.0649H160.269V70.7956H157.05V67.0649ZM172.716 62.4237H175.935V66.1366H172.716V62.4237ZM167.888 57.0149H171.089V60.7279H167.888V57.0149ZM179.673 26.9545H182.874V30.6674H179.673V26.9545ZM164.078 2.3206H167.279V6.03353H164.078V2.3206ZM167.798 6.5512H171.017V10.2641H167.798V6.5512ZM152.723 66.4222V62.62H155.977V66.4222H152.723ZM152.723 61.2455V57.4612H155.959V61.2455H152.723ZM157.891 61.2455V57.4612H161.146V61.2455H157.891ZM142.368 56.0867V52.2845H145.605V56.0867H142.368ZM147.536 56.0867V52.2845H150.791V56.0867H147.536ZM152.705 56.0867V52.2845H155.942V56.0867H152.705ZM157.891 56.0867V52.2845H161.128V56.0867H157.891ZM163.059 56.0867V52.2845H166.314V56.0867H163.059ZM152.705 50.9279V47.1257H155.942V50.9279H152.705ZM157.891 50.9279V47.1257H161.128V50.9279H157.891ZM168.066 50.9279V47.1257H171.303V50.9279H168.066ZM163.077 50.9279V47.1257H166.314V50.9279H163.077ZM152.723 45.7512V41.949H155.977V45.7512H152.723ZM157.891 45.7512V41.949H161.128V45.7512H157.891ZM168.066 45.7512V41.949H171.303V45.7512H168.066ZM163.077 45.7512V41.949H166.314V45.7512H163.077ZM152.74 40.5924V36.7902H155.977V40.5924H152.74ZM157.909 40.5924V36.7902H161.163V40.5924H157.909ZM168.066 40.5924V36.7902H171.321V40.5924H168.066ZM163.059 40.5924V36.7902H166.314V40.5924H163.059ZM152.705 35.4335V31.6313H155.942V35.4335H152.705ZM157.891 35.4335V31.6313H161.128V35.4335H157.891ZM168.066 35.4335V31.6313H171.303V35.4335H168.066ZM163.077 35.4335V31.6313H166.314V35.4335H163.077ZM152.723 30.2568V26.4547H155.959V30.2568H152.723ZM168.084 30.2568V26.4547H171.321V30.2568H168.084ZM163.077 30.2568V26.4547H166.332V30.2568H163.077ZM152.723 25.098V21.2958H155.959V25.098H152.723ZM157.909 25.098V21.2958H161.146V25.098H157.909ZM168.084 25.098V21.2958H171.321V25.098H168.084ZM163.095 25.098V21.2958H166.332V25.098H163.095ZM152.74 19.9392V16.137H155.995V19.9392H152.74ZM157.909 19.9392V16.137H161.146V19.9392H157.909ZM168.084 19.9392V16.137H171.321V19.9392H168.084ZM163.095 19.9392V16.137H166.332V19.9392H163.095ZM152.758 14.7625V10.9603H155.995V14.7625H152.758ZM157.927 14.7625V10.9603H161.181V14.7625H157.927ZM163.095 14.7625V10.9603H166.332V14.7625H163.095ZM147.572 9.60366V5.80147H150.827V9.60366H147.572ZM152.74 9.60366V5.80147H155.977V9.60366H152.74ZM157.927 9.60366V5.80147H161.163V9.60366H157.927ZM142.404 4.42697V0.624786H145.641V4.42697H142.404ZM147.572 4.42697V0.624786H150.827V4.42697H147.572Z" fill="url(#paint0_linear_384_1667)"/>
<path d="M48.0522 0.285625L97.3026 0.124969L107.746 10.9246L107.943 55.5155L96.9092 66.69L73.6431 66.6721L68.3318 52.9093H89.1657V14.9588H66.5256V48.2146L48.0522 0.285625Z" fill="#2C2E35"/>
<path fill-rule="evenodd" clip-rule="evenodd" d="M50.0194 52.8558H21.9607L16.9176 66.69H1.84204L26.0201 0.285621H44.422L70.0128 66.69H55.0625L50.0194 52.8558ZM140.508 0.0892639L140.526 5.74792L145.605 5.81932L145.623 10.9425L150.809 10.9603V14.7982L129.779 14.8696V52.231H140.562L140.526 57.4791H145.623V62.6557H150.809L150.773 66.7078H141.957V63.0842H138.738V66.7078H101.201L111.108 56.6936L110.93 10.1213L101.702 0.107115L140.508 0.0892639ZM133.23 11.8885H136.431V8.1756H133.23V11.8885ZM33.1198 39.0215H44.9942L35.999 14.459L23.5344 48.6073L33.1198 39.0215Z" fill="#6F7176"/>
<path fill-rule="evenodd" clip-rule="evenodd" d="M2.6289 90.11L2.16393 92.5556H0.912109L3.23693 80.4171H5.20408L7.5289 92.5556H6.16977L5.70481 90.11H2.6289ZM2.80773 88.9497H5.50809L4.14897 81.9523L2.80773 88.9497ZM11.3201 80.3993C13.2158 80.3993 13.9669 81.3097 13.9669 83.0947V83.6659C13.9669 84.9512 13.5913 85.7545 12.5362 86.0758C13.7165 86.4149 14.1636 87.3432 14.1636 88.682V89.6995C14.1636 91.5202 13.2873 92.5556 11.3917 92.5556H8.58401V80.3993H11.3201ZM10.9982 85.5581C12.0712 85.5581 12.6256 85.2189 12.6256 83.9515V83.2375C12.6256 82.1665 12.2679 81.631 11.2844 81.631H9.94313V85.5581H10.9982ZM11.4096 91.3239C12.3931 91.3239 12.8581 90.8062 12.8581 89.6638V88.5927C12.8581 87.2361 12.3037 86.7898 11.1413 86.7898H9.96101V91.3239H11.4096ZM20.6909 83.3268V83.6481H19.4034V83.2554C19.4034 82.1665 18.992 81.5239 18.0085 81.5239C17.0428 81.5239 16.6315 82.1665 16.6315 83.2375C16.6315 85.9508 20.7088 86.2186 20.7088 89.6281C20.7088 91.4845 19.8325 92.6805 17.9727 92.6805C16.1128 92.6805 15.2366 91.4845 15.2366 89.6281V88.9497H16.5063V89.6995C16.5063 90.8062 16.9534 91.4488 17.9369 91.4488C18.9026 91.4488 19.3497 90.8062 19.3497 89.6995C19.3497 87.004 15.2902 86.7362 15.2902 83.3268C15.2902 81.4525 16.1665 80.2922 17.9906 80.2922C19.8325 80.2922 20.6909 81.4882 20.6909 83.3268ZM21.7818 83.3446C21.7818 81.4882 22.7117 80.2922 24.5716 80.2922C26.4493 80.2922 27.3614 81.4882 27.3614 83.3446V89.6281C27.3614 91.4667 26.4493 92.6805 24.5716 92.6805C22.7117 92.6805 21.7818 91.4667 21.7818 89.6281V83.3446ZM23.1231 89.6816C23.1231 90.7883 23.588 91.431 24.5716 91.431C25.5552 91.431 26.0201 90.7883 26.0201 89.6816V83.2732C26.0201 82.1665 25.5552 81.506 24.5716 81.506C23.588 81.506 23.1231 82.1665 23.1231 83.2732V89.6816ZM28.649 92.5377V80.3993H30.0081V91.306H33.4953V92.5377H28.649ZM35.7844 89.6816C35.7844 90.7705 36.2136 91.431 37.215 91.431C38.1807 91.431 38.6099 90.7705 38.6099 89.6816V80.3993H39.8796V89.6102C39.8796 91.4488 39.0391 92.6805 37.1614 92.6805C35.3015 92.6805 34.4431 91.4488 34.4431 89.6102V80.3993H35.7844V89.6816ZM42.9734 92.5377V81.631H40.738V80.3993H46.5679V81.631H44.3147V92.5377H42.9734ZM51.8077 85.7723V86.9862H48.8391V91.306H52.4873V92.5377H47.48V80.3993H52.4873V81.631H48.8391V85.7723H51.8077ZM59.2829 80.3993C61.1785 80.3993 62.0369 81.5417 62.0369 83.416V89.5388C62.0369 91.3953 61.1785 92.5377 59.2829 92.5377H56.4216V80.3993H59.2829ZM59.265 91.306C60.2486 91.306 60.7136 90.6991 60.7136 89.5924V83.3446C60.7136 82.2379 60.2486 81.631 59.2471 81.631H57.7986V91.306H59.265ZM67.6344 85.7723V86.9862H64.6658V91.306H68.3139V92.5377H63.3066V80.3993H68.3139V81.631H64.6658V85.7723H67.6344ZM73.7147 86.0579V87.2896H70.9249V92.5377H69.5658V80.3993H74.3942V81.631H70.9249V86.0579H73.7147ZM79.795 85.7723V86.9862H76.8263V91.306H80.4745V92.5377H75.4672V80.3993H80.4745V81.631H76.8263V85.7723H79.795ZM82.9066 92.5377H81.6906V80.3993H83.4252L86.2329 89.1639V80.3993H87.4311V92.5377H86.0183L82.9066 82.7199V92.5377ZM94.1909 83.3268V84.4157H92.9034V83.2554C92.9034 82.1665 92.4742 81.506 91.4906 81.506C90.507 81.506 90.0599 82.1665 90.0599 83.2554V89.6816C90.0599 90.7705 90.507 91.431 91.4906 91.431C92.4742 91.431 92.9034 90.7705 92.9034 89.6816V88.0929H94.1909V89.6102C94.1909 91.4488 93.3325 92.6627 91.4548 92.6627C89.595 92.6627 88.7187 91.4488 88.7187 89.6102V83.3268C88.7187 81.4882 89.595 80.2743 91.4548 80.2743C93.3325 80.2743 94.1909 81.4882 94.1909 83.3268ZM99.7526 85.7723V86.9862H96.784V91.306H100.432V92.5377H95.4249V80.3993H100.432V81.631H96.784V85.7723H99.7526ZM107.228 80.3993C109.123 80.3993 110 81.5417 110 83.416V89.5388C110 91.3953 109.123 92.5377 107.228 92.5377H104.384V80.3993H107.228ZM107.21 91.306C108.176 91.306 108.641 90.6991 108.641 89.5924V83.3446C108.641 82.2379 108.176 81.631 107.192 81.631H105.726V91.306H107.21ZM112.611 80.3993V92.5377H111.252V80.3993H112.611ZM119.281 83.3089V83.6302H117.993V83.2375C117.993 82.1486 117.564 81.506 116.599 81.506C115.633 81.506 115.204 82.1486 115.204 83.2197C115.204 85.9508 119.299 86.2007 119.299 89.6281C119.299 91.4667 118.405 92.6627 116.545 92.6627C114.685 92.6627 113.827 91.4667 113.827 89.6281V88.9319H115.079V89.6995C115.079 90.7883 115.543 91.431 116.509 91.431C117.493 91.431 117.94 90.7883 117.94 89.6995C117.94 86.9862 113.862 86.7184 113.862 83.3089C113.862 81.4346 114.739 80.2743 116.563 80.2743C118.405 80.2743 119.281 81.4703 119.281 83.3089ZM122.232 92.5377V81.631H119.996V80.3993H125.808V81.631H123.573V92.5377H122.232ZM129.439 80.3993C131.352 80.3993 132.157 81.3632 132.157 83.1661V84.1479C132.157 85.4867 131.692 86.3257 130.637 86.647C131.746 86.9862 132.175 87.8787 132.175 89.1818V91.074C132.175 91.6095 132.193 92.1271 132.407 92.5377H131.048C130.887 92.1807 130.816 91.8772 130.816 91.0561V89.1461C130.816 87.7894 130.172 87.3432 129.045 87.3432H128.08V92.5377H126.738V80.3993H129.439ZM129.081 86.1115C130.154 86.1115 130.798 85.7723 130.798 84.4514V83.2911C130.798 82.2022 130.404 81.631 129.403 81.631H128.08V86.1115H129.081ZM134.911 80.3993V92.5377H133.552V80.3993H134.911ZM139.042 80.3993C140.938 80.3993 141.689 81.2918 141.689 83.0769V83.6481C141.689 84.9333 141.313 85.7366 140.258 86.0579C141.438 86.3971 141.885 87.3253 141.885 88.6641V89.6995C141.885 91.5202 141.009 92.5377 139.114 92.5377H136.306V80.3993H139.042ZM138.72 85.5403C139.793 85.5403 140.348 85.2011 140.348 83.9337V83.2197C140.348 82.1486 139.99 81.631 139.006 81.631H137.665V85.5403H138.72ZM139.131 91.306C140.115 91.306 140.562 90.7883 140.562 89.6638V88.5749C140.562 87.2361 140.026 86.772 138.863 86.772H137.683V91.306H139.131ZM144.443 89.6816C144.443 90.7705 144.872 91.431 145.856 91.431C146.839 91.431 147.268 90.7705 147.268 89.6816V80.3993H148.538V89.6102C148.538 91.4488 147.68 92.6805 145.802 92.6805C143.942 92.6805 143.102 91.4488 143.102 89.6102V80.3993H144.443V89.6816ZM151.632 92.5377V81.631H149.396V80.3993H155.208V81.631H152.973V92.5377H151.632ZM157.48 80.3993V92.5377H156.138V80.3993H157.48ZM158.749 83.3268C158.749 81.4703 159.679 80.2743 161.539 80.2743C163.417 80.2743 164.329 81.4703 164.329 83.3268V89.6102C164.329 91.4488 163.417 92.6627 161.539 92.6627C159.679 92.6627 158.749 91.4488 158.749 89.6102V83.3268ZM160.091 89.6638C160.091 90.7883 160.573 91.431 161.539 91.431C162.523 91.431 162.988 90.7883 162.988 89.6638V83.2554C162.988 82.1665 162.523 81.506 161.539 81.506C160.573 81.506 160.091 82.1665 160.091 83.2554V89.6638ZM166.815 92.5199H165.599V80.3814H167.333L170.141 89.1639V80.3814H171.339V92.5199H169.926L166.815 82.702V92.5199Z" fill="#2C2E35"/>
<path d="M0.107178 96.929H171.339V97.9464H0.107178V96.929Z" fill="#ED2F5F"/>
</g>
<defs>
<linearGradient id="paint0_linear_384_1667" x1="73366.1" y1="18315.2" x2="59056.7" y2="5631.18" gradientUnits="userSpaceOnUse">
<stop stop-color="#E42121"/>
<stop offset="1" stop-color="#B61A99"/>
</linearGradient>
<clipPath id="clip0_384_1667">
<rect width="196" height="98" fill="white"/>
</clipPath>
</defs>
</svg>
