<svg width="31" height="20" viewBox="0 0 31 20" fill="none" xmlns="http://www.w3.org/2000/svg">
<path fill-rule="evenodd" clip-rule="evenodd" d="M2.85434 0.0487392C2.49677 0.120485 2.1301 0.275543 1.81546 0.488026C1.65023 0.599638 1.51503 0.704915 1.51503 0.722025C1.51503 0.747708 2.65099 1.81112 4.34228 3.36869C4.51893 3.53136 4.70305 3.70095 4.75143 3.74553C4.79985 3.79011 4.99117 3.96827 5.17665 4.14144C5.3621 4.31461 5.54199 4.48099 5.57643 4.51122C5.61087 4.54144 5.78135 4.69791 5.95528 4.85889C7.3653 6.16402 10.1492 8.73822 10.3972 8.96623C10.5659 9.12139 11.4942 9.98075 12.46 10.8758C13.4258 11.771 14.285 12.5549 14.3694 12.618C15.1962 13.2356 16.3902 13.2241 17.1823 12.5907C17.3249 12.4767 20.2056 9.8017 21.0515 8.9978C21.1926 8.8637 21.4001 8.66947 21.5126 8.56618C22.005 8.11419 22.4216 7.72603 22.9288 7.24667C23.0701 7.11313 23.3616 6.83971 23.5766 6.63904C23.7916 6.4384 24.612 5.67275 25.3996 4.93756C26.1872 4.20241 27.0079 3.43703 27.2232 3.23677C27.4386 3.03651 27.7456 2.7487 27.9055 2.59722C28.0654 2.44574 28.372 2.15914 28.5869 1.96033C29.3628 1.24266 29.8833 0.748775 29.8833 0.730253C29.8833 0.66887 29.3443 0.327838 29.065 0.212473C28.5047 -0.0189441 29.5565 -0.00241916 15.6528 0.00209076C5.81146 0.00529246 3.02019 0.0154828 2.85434 0.0487392ZM0.937815 1.61017C0.777391 2.00119 0.785949 1.57278 0.773709 9.80965C0.76215 17.589 0.765287 17.829 0.884011 18.2327C0.983777 18.5719 0.898706 18.6138 2.12877 17.6202C2.73824 17.1279 3.36732 16.6188 3.52672 16.4887C3.68612 16.3587 4.78318 15.4739 5.96462 14.5226C10.1004 11.1924 10.7552 10.6616 10.7552 10.6394C10.7552 10.616 10.5523 10.4243 8.14679 8.17427C6.89068 6.99938 5.9697 6.1363 5.83137 6.00441C5.81091 5.98486 5.68673 5.86953 5.55546 5.74807C5.42419 5.62661 5.12499 5.34717 4.89058 5.12708C4.65617 4.90699 4.13449 4.41868 3.7313 4.04194C3.32811 3.66521 2.90617 3.26968 2.79365 3.16299C1.96194 2.37445 1.02814 1.51278 1.00526 1.51278C0.990153 1.51278 0.959773 1.5566 0.937815 1.61017ZM29.44 2.46413C28.2423 3.59219 28.2001 3.63168 27.6999 4.09479C27.4852 4.29361 27.1943 4.5662 27.0535 4.70056C26.9127 4.83493 26.6978 5.03767 26.5759 5.15114C26.0955 5.59825 22.3935 9.06403 21.7515 9.66778C21.3765 10.0204 21.0038 10.3708 20.9232 10.4465L20.7766 10.5843L22.5757 11.9613C23.5652 12.7187 24.6054 13.5149 24.8872 13.7307C26.6007 15.0428 26.9802 15.3332 27.7294 15.906C30.2185 17.8087 30.612 18.1065 30.6372 18.1065C30.6524 18.1065 30.6885 18.0262 30.7173 17.9281C30.7639 17.7699 30.7697 16.8763 30.7693 10.0013L30.7688 2.25295L30.6893 1.99468C30.6037 1.71648 30.5103 1.51157 30.4705 1.51477C30.457 1.51587 29.9932 1.94308 29.44 2.46413ZM19.8404 11.4543C19.727 11.5627 19.4591 11.8142 19.2451 12.013C19.0311 12.2118 18.6405 12.5764 18.3772 12.8233C17.6924 13.4653 17.3956 13.6691 16.857 13.8672C16.2334 14.0966 15.3097 14.1041 14.7104 13.8846C14.1814 13.691 13.8522 13.4774 13.3036 12.9723C13.074 12.7608 12.741 12.4546 12.5636 12.2918C12.3862 12.129 12.133 11.8934 12.001 11.7684C11.7184 11.5006 11.5191 11.3244 11.4988 11.3244C11.4822 11.3244 10.9943 11.7101 8.88286 13.3923C8.15054 13.9757 5.07845 16.418 4.61781 16.7829C4.34589 16.9984 3.95269 17.3107 3.74405 17.4771C3.53538 17.6434 2.94783 18.1105 2.43833 18.515C1.92886 18.9196 1.51773 19.268 1.52475 19.2892C1.5479 19.3594 2.0051 19.653 2.2582 19.7602C2.39503 19.8182 2.64714 19.8959 2.8184 19.9328C3.12404 19.9988 3.36241 20 15.6845 20C28.0271 20 28.2445 19.9989 28.5583 19.9325C29.0177 19.8352 29.3668 19.6814 29.6987 19.4301C29.9172 19.2647 30.156 19.0317 30.156 18.984C30.156 18.9633 29.9681 18.8057 29.7384 18.6339C29.5087 18.462 29.0905 18.1448 28.8092 17.9289C28.5279 17.7131 27.638 17.0344 26.8316 16.4207C26.0253 15.807 25.0893 15.0938 24.7518 14.8357C24.4142 14.5776 23.5473 13.9169 22.8253 13.3677C22.1033 12.8184 21.1856 12.1185 20.786 11.8123C20.3864 11.5061 20.0565 11.2559 20.0529 11.2563C20.0493 11.2567 19.9537 11.3458 19.8404 11.4543Z" fill="url(#paint0_radial_153_1883)"/>
<defs>
<radialGradient id="paint0_radial_153_1883" cx="0" cy="0" r="1" gradientUnits="userSpaceOnUse" gradientTransform="translate(-11.7246 -16.8599) rotate(46.2043) scale(63.849 297.956)">
<stop stop-color="#E92FED"/>
<stop offset="1" stop-color="#971AB6"/>
</radialGradient>
</defs>
</svg>
