<svg width="31" height="30" viewBox="0 0 31 30" fill="none" xmlns="http://www.w3.org/2000/svg">
<path fill-rule="evenodd" clip-rule="evenodd" d="M16.95 0.0330422C16.8145 0.0785707 16.6447 0.225813 16.568 0.364422C16.5133 0.463146 16.5042 0.506898 16.5041 0.670711C16.5041 0.82562 16.5142 0.879804 16.5573 0.956742C16.6954 1.203 16.8474 1.29352 17.2668 1.37909C17.9808 1.52476 19.0122 1.82385 19.6996 2.08452C22.9151 3.3039 25.5229 5.41244 27.2248 8.16886C28.34 9.97512 29.0353 12.0394 29.2639 14.2231C29.3048 14.6146 29.3441 15.566 29.3392 16.0492C29.3363 16.3388 29.3416 16.3869 29.3866 16.4792C29.5063 16.7246 29.7563 16.8852 30.0224 16.8879C30.2845 16.8904 30.4827 16.7987 30.6292 16.607C30.7708 16.4218 30.7779 16.359 30.7646 15.4216C30.7516 14.5145 30.7225 14.1399 30.6029 13.3417C30.0138 9.41027 27.9991 5.92288 24.8819 3.43875C22.9757 1.91977 20.704 0.811411 18.2232 0.190043C17.4656 0.000284231 17.1598 -0.0374202 16.95 0.0330422ZM6.83984 3.01081C6.45769 3.03858 6.13071 3.09305 5.63845 3.21091C4.21517 3.55173 3.22406 4.13778 2.36779 5.14487C1.67802 5.95611 1.24269 6.81027 0.981203 7.86534C0.839595 8.43677 0.790709 8.81444 0.773109 9.47289C0.755011 10.1494 0.797469 10.5857 0.957958 11.3727C1.41257 13.6019 2.76007 16.2688 4.87709 19.1294C5.77614 20.3442 6.78689 21.5316 8.29313 23.1422C9.59703 24.5365 11.0075 25.8108 12.3407 26.799C13.3982 27.5828 15.0346 28.6006 15.8923 29.008C17.4111 29.7294 19.0422 30.0621 20.7088 29.9905C21.3363 29.9635 21.6762 29.9237 22.0845 29.8293C23.4176 29.5211 24.5578 28.7952 25.4719 27.673C26.128 26.8676 26.6128 25.8444 26.7874 24.8964C26.8482 24.5665 26.875 23.9237 26.8362 23.7281C26.7747 23.419 26.5613 23.1412 26.2081 22.9106C25.6331 22.5351 24.0394 21.8 22.7839 21.3313C22.5129 21.2301 22.1215 21.0769 21.9142 20.9908C21.4124 20.7824 21.2393 20.7211 20.5122 20.4944C19.78 20.2661 19.6545 20.2406 19.4346 20.2758C18.93 20.3565 18.3168 20.9364 17.7724 21.8478C17.5275 22.2579 17.2235 22.5841 16.9733 22.7052C16.818 22.7805 16.5269 22.7814 16.3019 22.7075C15.9171 22.581 15.6848 22.4478 14.9008 21.9043C13.7611 21.1142 13.3357 20.8036 12.993 20.5112C11.6177 19.3382 10.8038 18.4553 9.88501 17.1397C9.40514 16.4526 9.16986 16.0685 8.78301 15.341C8.22643 14.2943 7.99305 13.7574 7.89359 13.295C7.80609 12.8882 7.79314 12.7031 7.8434 12.5783C7.9366 12.3471 8.27833 12.1471 9.17472 11.7994C9.96236 11.4939 10.2393 11.3475 10.5565 11.0691C10.849 10.8124 10.9673 10.5894 10.9667 10.2957C10.9661 9.94706 10.622 8.12412 10.3638 7.10091C10.3185 6.92161 10.2317 6.55232 10.1709 6.28027C10.0272 5.63727 9.82384 4.85236 9.7311 4.58279C9.62141 4.26395 9.40153 3.85829 9.22221 3.64391C9.05323 3.4419 8.86089 3.29443 8.60995 3.17449C8.38106 3.06508 8.23053 3.03489 7.78647 3.00937C7.35121 2.98437 7.20088 2.98459 6.83984 3.01081ZM16.793 3.98568C16.2767 4.16024 16.136 4.78572 16.5358 5.12816C16.6716 5.2444 16.7211 5.26412 17.1321 5.36572C18.4784 5.69852 19.8207 6.31483 20.9256 7.1075C22.8207 8.46715 24.1652 10.3872 24.7701 12.5981C24.9912 13.4061 25.0935 14.1025 25.1221 14.9929C25.138 15.4854 25.1402 15.5026 25.2041 15.6265C25.2815 15.7764 25.3948 15.8773 25.5719 15.9541C25.6825 16.0022 25.7248 16.0084 25.8813 15.9995C26.1669 15.9833 26.3776 15.851 26.5033 15.6091C26.5589 15.5019 26.5607 15.4831 26.5586 15.015C26.5562 14.4804 26.5286 14.1395 26.441 13.56C25.9784 10.4995 24.3168 7.81075 21.7693 6.00013C20.4892 5.09028 19.0319 4.421 17.5108 4.04432C17.1214 3.94791 16.9469 3.93365 16.793 3.98568ZM16.5609 8.11517C16.3336 8.14685 16.1275 8.29095 16.0248 8.48999C15.8961 8.73924 15.9566 9.0654 16.1687 9.26647C16.2877 9.3792 16.3495 9.40564 16.7039 9.49506C17.1221 9.60059 17.414 9.70473 17.8081 9.88907C19.393 10.6304 20.453 11.9895 20.7624 13.6772C20.7928 13.8434 20.819 14.1206 20.8304 14.3986C20.8474 14.8122 20.854 14.8604 20.9085 14.9734C20.9789 15.1191 21.1043 15.2412 21.2563 15.3122C21.3445 15.3534 21.4057 15.3635 21.5677 15.3635C21.7469 15.3635 21.7835 15.3561 21.8964 15.2968C22.0548 15.2136 22.1698 15.0883 22.2317 14.9316C22.3255 14.6938 22.2822 13.8948 22.1388 13.2211C21.643 10.8918 19.8918 9.02905 17.5092 8.29659C16.9744 8.13219 16.7487 8.089 16.5609 8.11517Z" fill="url(#paint0_radial_153_1867)"/>
<defs>
<radialGradient id="paint0_radial_153_1867" cx="0" cy="0" r="1" gradientUnits="userSpaceOnUse" gradientTransform="translate(-11.7246 -25.2898) rotate(57.4127) scale(82.047 347.804)">
<stop stop-color="#E92FED"/>
<stop offset="1" stop-color="#971AB6"/>
</radialGradient>
</defs>
</svg>
