<svg width="25" height="34" viewBox="0 0 25 34" fill="none" xmlns="http://www.w3.org/2000/svg">
<path fill-rule="evenodd" clip-rule="evenodd" d="M1.12778 0.0779222C0.744454 0.194314 0.345773 0.535178 0.170278 0.896523L0 1.24706V17.0432V32.8392L0.183245 33.1638C0.385268 33.5216 0.899455 33.9091 1.25894 33.9744C1.38622 33.9976 6.52049 34.0067 12.6684 33.9947C25.0798 33.9705 24.0153 34.0167 24.5447 33.4798C25.0285 32.9891 25.0017 33.8435 24.9988 19.0134C24.9967 8.59708 24.9757 5.51949 24.9057 5.3975C24.8309 5.26743 21.8694 2.34296 19.9181 0.472371L19.4253 0L10.3834 0.00649986C5.41022 0.0100521 1.24523 0.0421732 1.12778 0.0779222ZM18.668 3.00428C18.6687 4.80473 18.6752 4.88908 18.8427 5.25367C19.028 5.65742 19.3649 5.96578 19.7775 6.10938C19.9449 6.16758 20.6844 6.19751 21.9572 6.19751H23.8836V19.3718C23.8836 32.5257 23.8834 32.5465 23.7317 32.7116L23.5797 32.877L12.4978 32.8759C6.40275 32.8752 1.37899 32.8498 1.33391 32.8192C1.08106 32.648 1.08054 32.6132 1.08054 16.949C1.08054 1.4704 1.08061 1.46443 1.23249 1.29913L1.38443 1.13369H10.0258H18.6672L18.668 3.00428ZM21.4617 3.51656L23.0267 5.06057L21.5549 5.06223C19.6323 5.06435 19.785 5.21097 19.785 3.36328C19.785 2.59426 19.8102 1.96673 19.8409 1.96884C19.8717 1.97088 20.601 2.66735 21.4617 3.51656ZM3.63814 6.43755C3.27977 6.61539 3.25965 7.21436 3.60572 7.40217C3.70506 7.45606 5.181 7.48236 8.10769 7.48236C12.4 7.48236 12.4648 7.48009 12.6583 7.32568C12.8955 7.13651 12.9177 6.82233 12.7123 6.5649L12.5699 6.38646L8.1852 6.37172C5.20417 6.36174 3.7485 6.38283 3.63814 6.43755ZM3.77294 10.1462C3.35474 10.2561 3.20883 10.6736 3.47837 10.9894L3.65148 11.1923L12.6512 11.1909C18.8131 11.19 21.6972 11.1644 21.7976 11.1099C22.0826 10.9552 22.083 10.3585 21.7983 10.2039C21.6274 10.1111 4.11976 10.0551 3.77294 10.1462ZM3.63814 13.9209C3.54886 13.9647 3.43723 14.0949 3.39006 14.2103C3.28231 14.4742 3.44811 14.8467 3.70439 14.9163C3.79821 14.9418 7.86945 14.9631 12.7515 14.9637C21.6195 14.9647 21.6281 14.9646 21.8243 14.808C22.0958 14.5914 22.0958 14.2043 21.8243 13.9877C21.6281 13.8311 21.6229 13.831 12.7142 13.8362C6.63309 13.8396 3.74895 13.8666 3.63814 13.9209ZM3.83778 17.5984C3.3303 17.6696 3.17202 18.3525 3.60811 18.5892C3.81691 18.7026 21.5885 18.7057 21.7972 18.5925C22.0834 18.4371 22.0831 17.8408 21.7967 17.6854C21.6957 17.6305 18.8726 17.6 12.8366 17.5888C7.98973 17.5796 3.94024 17.584 3.83778 17.5984ZM3.66906 21.3657C3.59678 21.3848 3.48515 21.5034 3.42106 21.6292C3.27634 21.913 3.3806 22.2326 3.66005 22.3617C3.79053 22.422 5.11333 22.4471 8.16686 22.4471H12.4889L12.6717 22.2615C12.9207 22.0091 12.9151 21.6748 12.6583 21.4701C12.4645 21.3154 12.4063 21.3135 8.13124 21.3222C5.74936 21.327 3.74135 21.3466 3.66906 21.3657ZM17.5692 21.8078C16.9508 21.9767 16.4358 22.2796 15.9786 22.7434C15.1309 23.6031 14.783 24.7667 15.0234 25.9389C15.1189 26.4052 15.4912 27.2183 15.6946 27.4051C15.7721 27.4761 15.8355 27.5773 15.8355 27.6298C15.8355 27.6823 15.4331 28.3104 14.9412 29.0256C14.4494 29.7408 14.047 30.3879 14.047 30.4636C14.047 30.5393 14.1224 30.6898 14.2147 30.7981C14.3546 30.9624 14.4873 31.0101 15.0158 31.0857L15.6492 31.1765L15.91 31.6767C16.2572 32.3424 16.3336 32.4236 16.6131 32.4236C16.9073 32.4236 17.0403 32.2828 17.8098 31.1576C18.1296 30.69 18.4114 30.3083 18.4361 30.3095C18.4608 30.3107 18.7936 30.7699 19.1757 31.3298C19.9057 32.3995 20.0485 32.5171 20.4475 32.3771C20.6104 32.32 20.9849 31.7483 21.2171 31.2024C21.2286 31.1751 21.517 31.1189 21.8577 31.0775C22.5679 30.9913 22.7658 30.8644 22.7658 30.4957C22.7658 30.3092 22.5616 29.9583 21.8712 28.9588L20.9765 27.6635L21.234 27.3001C22.0056 26.2109 22.1145 24.8819 21.531 23.6737C20.8144 22.1892 19.1105 21.3868 17.5692 21.8078ZM19.4493 23.0515C20.1693 23.4051 20.6931 24.1577 20.7951 24.9856C20.8812 25.6839 20.5465 26.5091 19.9415 27.0905C19.5591 27.4579 19.6086 27.6289 20.456 28.8679C21.2279 29.9966 21.2517 30.0769 20.8163 30.0795C20.6313 30.0805 20.414 30.2754 20.1949 30.6367C20.1339 30.7374 20.0057 30.5926 19.487 29.8366C18.5387 28.4546 18.3456 28.4106 17.6534 29.4194C17.4181 29.7623 17.1084 30.2083 16.9651 30.4105L16.7045 30.7782L16.5675 30.5073C16.4244 30.2244 16.2374 30.0814 16.0081 30.0795C15.6259 30.0761 15.6524 29.963 16.235 29.1083C16.5486 28.6484 16.8888 28.147 16.991 27.9942C17.2631 27.5877 17.2319 27.4126 16.8091 26.9722C16.3229 26.4661 16.1202 26.018 16.0781 25.3569C16.0511 24.9336 16.0779 24.7377 16.2122 24.3767C16.43 23.7913 16.9875 23.213 17.5521 22.9869C18.1004 22.7672 18.9276 22.7954 19.4493 23.0515Z" fill="#C7C7C7"/>
</svg>
