<svg width="15" height="18" viewBox="0 0 15 18" fill="none" xmlns="http://www.w3.org/2000/svg">
<path id="image 1 (Traced)" fill-rule="evenodd" clip-rule="evenodd" d="M3.41008 0.00679104C3.39109 0.0141714 3.23655 0.061433 3.06665 0.111809C1.79374 0.489361 0.301559 1.43767 0.0763237 2.0123C-0.0154617 2.24647 -0.022331 2.46545 0.0442557 3.03347C0.397555 6.04568 1.47499 8.92296 3.20566 11.4759C4.95383 14.0547 7.33859 16.1895 10.1499 17.6924C10.6695 17.9701 10.8189 18.0153 11.1555 17.9962C11.4686 17.9784 11.7018 17.8767 12.277 17.507C12.7853 17.1804 13.0627 16.9559 13.5425 16.4828C14.258 15.7774 14.4665 15.4175 14.4254 14.9593C14.3895 14.5601 14.2403 14.3269 13.7297 13.8722C13.6149 13.77 13.0049 13.2217 12.3742 12.6538C11.0551 11.4662 10.9458 11.3913 10.5072 11.3739C10.2317 11.363 10.2775 11.3525 8.9956 11.7205C8.76418 11.7869 8.55175 11.8413 8.52348 11.8413C8.46684 11.8413 7.77349 11.133 7.41319 10.7072C6.51677 9.64749 5.70171 8.36997 5.13971 7.1435C5.05376 6.95591 4.97405 6.76585 4.96259 6.72113C4.94116 6.63733 5.0114 6.54081 5.73198 5.66339C6.07092 5.25073 6.18832 5.01361 6.21186 4.69429C6.23309 4.40602 6.30496 4.62316 5.39539 2.22646C5.088 1.41648 4.79611 0.680574 4.74675 0.591129C4.54992 0.234365 4.1746 0.0193174 3.72075 0.00320244C3.56886 -0.00221437 3.42906 -0.000589357 3.41008 0.00679104ZM3.98516 0.774556C4.11954 0.868402 4.132 0.895452 4.56263 2.02841C5.44814 4.35811 5.49846 4.49864 5.49833 4.6408C5.49815 4.82568 5.4715 4.86563 4.77067 5.7311C4.24453 6.38082 4.1774 6.47788 4.17788 6.58804C4.17916 6.86586 4.8862 8.31086 5.4976 9.28521C5.82871 9.81284 6.58135 10.8433 6.83317 11.1137C6.868 11.1511 7.03103 11.3339 7.19548 11.52C7.35992 11.706 7.66441 12.022 7.87208 12.2222C8.21664 12.5543 8.26097 12.5861 8.37909 12.5861C8.45027 12.5861 8.9103 12.471 9.4014 12.3303C9.89246 12.1895 10.3453 12.0673 10.4076 12.0587C10.4756 12.0492 10.572 12.0669 10.6487 12.1029C10.8121 12.1797 13.5732 14.6556 13.6535 14.7974C13.7515 14.9704 13.7326 15.1873 13.6026 15.3818C13.4212 15.6535 12.5605 16.4706 12.1778 16.7343C11.7557 17.0253 11.3938 17.2349 11.2155 17.2914C11.038 17.3478 10.913 17.3095 10.4305 17.0512C8.03846 15.7709 5.92681 13.9713 4.3173 11.8413C2.45708 9.37963 1.26857 6.52639 0.805844 3.41139C0.693519 2.6552 0.681576 2.39401 0.752685 2.24705C0.865803 2.01321 1.66353 1.46283 2.37676 1.12655C2.69861 0.974774 3.28995 0.754988 3.54815 0.691171C3.66752 0.661649 3.88216 0.702614 3.98516 0.774556ZM10.3409 3.06407C10.2313 3.08296 10.0895 3.26216 10.0895 3.3818C10.0895 3.52629 10.1745 3.66713 10.2863 3.70789C10.3394 3.72726 10.5451 3.79182 10.7433 3.85137C12.3819 4.34362 13.6958 5.63174 14.1968 7.23701C14.3569 7.75001 14.3695 7.77683 14.4765 7.83106C14.6286 7.90822 14.7691 7.89241 14.8926 7.78417C14.9867 7.7017 15.0019 7.66602 14.9998 7.5327C14.9969 7.33925 14.7264 6.54684 14.5361 6.17413C13.8171 4.76552 12.5515 3.69425 11.0387 3.21357C10.5928 3.07189 10.4603 3.04349 10.3409 3.06407ZM9.58507 6.15145C9.44538 6.20975 9.35625 6.36081 9.37596 6.50584C9.40047 6.68598 9.50747 6.77512 9.80209 6.86074C10.4022 7.03517 10.9469 7.57038 11.1324 8.16802C11.2239 8.46266 11.3425 8.59121 11.5228 8.59121C11.622 8.59121 11.6763 8.56514 11.7716 8.47163C11.8845 8.36093 11.892 8.34095 11.8725 8.20171C11.8193 7.82101 11.5506 7.31505 11.1944 6.92473C10.7837 6.47466 9.86654 6.03397 9.58507 6.15145Z" fill="url(#paint0_radial_384_1665)"/>
<defs>
<radialGradient id="paint0_radial_384_1665" cx="0" cy="0" r="1" gradientUnits="userSpaceOnUse" gradientTransform="translate(-6.24693 -15.1739) rotate(61.9567) scale(46.9959 182.162)">
<stop stop-color="#E92FED"/>
<stop offset="1" stop-color="#971AB6"/>
</radialGradient>
</defs>
</svg>
