<svg width="31" height="30" viewBox="0 0 31 30" fill="none" xmlns="http://www.w3.org/2000/svg">
<path fill-rule="evenodd" clip-rule="evenodd" d="M14.3654 0.0352053C11.4462 0.3176 8.55277 1.50442 6.28392 3.35003C5.61655 3.89292 4.55989 4.95786 4.02763 5.62416C2.68179 7.30878 1.57892 9.58749 1.12152 11.6284C0.834284 12.9104 0.769226 13.5336 0.769226 15.0042C0.769226 16.4749 0.834284 17.0981 1.12152 18.3801C1.5889 20.4655 2.72054 22.7768 4.11112 24.4859C4.65407 25.1532 5.71912 26.2097 6.38549 26.742C8.0703 28.0876 10.3493 29.1904 12.3904 29.6477C13.6725 29.9349 14.2958 30 15.7666 30C17.2374 30 17.8606 29.9349 19.1428 29.6477C20.6774 29.3039 22.6841 28.4465 24.0027 27.5712C26.2897 26.053 28.0462 24.0555 29.2455 21.6091C29.9801 20.1105 30.3973 18.7684 30.6601 17.0591C30.8056 16.1133 30.8056 13.8952 30.6601 12.9494C30.3973 11.2401 29.9801 9.89795 29.2455 8.39938C28.4616 6.80024 27.5878 5.58365 26.3262 4.33506C25.0877 3.1092 23.9531 2.30364 22.3722 1.52761C20.8913 0.800666 19.5203 0.371966 17.8804 0.122977C17.1429 0.0110168 15.1338 -0.0391802 14.3654 0.0352053ZM11.9132 4.96819C12.6893 5.15636 13.3427 5.51202 13.9767 6.09143C14.5779 6.64084 14.9662 7.41833 15.1222 8.38505C15.213 8.94796 15.1667 10.0586 15.0286 10.6304C14.974 10.8564 14.9261 11.109 14.9223 11.1916C14.9162 11.3207 15.5738 11.9113 19.5831 15.3778C22.1505 17.5975 24.3392 19.5114 24.4468 19.6307C24.5545 19.7501 24.6822 19.9403 24.7307 20.0533C24.852 20.3361 24.8961 21.0727 24.815 21.4623C24.5526 22.7232 23.6409 23.4298 22.2841 23.424C21.706 23.4216 21.3732 23.3229 21.0748 23.0655C21.0072 23.0072 19.1006 20.8174 16.8379 18.1993L12.7239 13.4392L12.1754 13.5842C11.7117 13.7069 11.4866 13.7301 10.717 13.7346C9.67983 13.7406 9.27968 13.6637 8.54449 13.3167C7.68858 12.9128 6.74237 11.7721 6.34997 10.6711C6.18222 10.2005 6.1683 10.1034 6.17171 9.4268C6.17406 8.95395 6.20506 8.60621 6.25896 8.44916L6.34263 8.2054L7.60227 9.25642C8.29512 9.83448 8.90284 10.3064 8.95275 10.3051C9.19554 10.2989 11.3555 10.0253 11.4054 9.99459C11.4368 9.97515 11.4801 9.60827 11.5017 9.17934C11.5232 8.75035 11.5551 8.21444 11.5725 7.98841L11.6041 7.57744L10.5459 6.31517L9.48765 5.05291L9.73537 4.975C10.0403 4.87913 10.7634 4.80827 11.1574 4.83568C11.3188 4.8469 11.659 4.90655 11.9132 4.96819ZM23.9683 6.62205C24.3039 6.95229 24.5932 7.28113 24.6112 7.35281C24.6292 7.4245 24.6151 7.57039 24.5798 7.67707C24.4989 7.92218 23.1442 9.58808 22.9562 9.67373C22.8468 9.72364 22.7554 9.71448 22.5393 9.63199L22.2627 9.52637L20.644 11.1843L19.0253 12.8424L18.3593 12.2664L17.6934 11.6904L17.8896 11.5189C17.9976 11.4245 18.7688 10.6724 19.6033 9.8474L21.1208 8.34742L21.0272 8.15127C20.9057 7.89658 20.9087 7.70666 21.0364 7.56241C21.1596 7.42315 22.6758 6.18954 22.8424 6.09302C22.9067 6.05574 23.049 6.02438 23.1587 6.02339C23.3335 6.02186 23.4331 6.09548 23.9683 6.62205ZM13.8235 17.0914C14.734 18.1426 15.4914 19.0347 15.5065 19.0741C15.5216 19.1134 14.4435 20.2301 13.1108 21.5555C10.8967 23.7575 10.6547 23.9802 10.306 24.1376C9.97001 24.2892 9.85756 24.3098 9.36652 24.3098C8.58929 24.3098 8.22419 24.1346 7.45924 23.3947C6.52248 22.4885 6.27939 22.0032 6.32519 21.1305C6.3458 20.7387 6.38596 20.5785 6.54626 20.2497C6.72276 19.8875 6.96608 19.6231 9.00847 17.5739L11.2748 15.3L11.6565 15.2474C11.8664 15.2185 12.0673 15.1916 12.103 15.1876C12.1387 15.1837 12.9129 16.0404 13.8235 17.0914Z" fill="url(#paint0_radial_562_2657)"/>
<defs>
<radialGradient id="paint0_radial_562_2657" cx="0" cy="0" r="1" gradientUnits="userSpaceOnUse" gradientTransform="translate(-11.7246 -25.2898) rotate(57.4127) scale(82.047 347.804)">
<stop stop-color="#E92FED"/>
<stop offset="1" stop-color="#971AB6"/>
</radialGradient>
</defs>
</svg>
