<svg width="36" height="44" viewBox="0 0 36 44" fill="none" xmlns="http://www.w3.org/2000/svg">
<path fill-rule="evenodd" clip-rule="evenodd" d="M15.7351 1.43266C13.5863 3.04757 10.2948 4.8104 7.74834 5.7099C6.11833 6.2857 5.05836 6.49642 3.33775 6.58656C1.9924 6.65696 0.855179 6.84176 0.536424 7.04177L0 7.37831V16.7925C0 26.9974 0.0774835 27.766 1.36085 30.3016C3.28911 34.1108 7.54069 38.2822 12.0712 40.8096C14.1056 41.9446 17.3036 43.2805 17.9862 43.2805C18.6706 43.2805 21.569 42.0961 23.6026 40.9849C28.3034 38.417 32.7059 34.1488 34.6618 30.2635C35.8953 27.8134 35.9926 26.8256 35.9964 16.716L36 7.39425L35.47 7.02417C35.1114 6.7735 34.3938 6.65387 33.2487 6.65387C29.5019 6.65387 23.6408 4.21344 19.5041 0.930594C18.272 -0.0471471 17.5814 0.0448952 15.7351 1.43266ZM21.0221 3.64572C24.9842 6.16321 29.3553 7.79333 32.739 8.01547L34.8423 8.15342L34.7598 17.3334C34.6799 26.213 34.6592 26.5635 34.1261 28.0591C32.915 31.4565 29.3677 35.6089 25.3881 38.2876C23.2031 39.7587 18.797 41.913 17.974 41.913C17.0528 41.913 11.7138 39.1693 9.64609 37.6331C5.99221 34.9189 2.8738 31.0888 1.85126 28.0591C1.35703 26.5952 1.32485 26.0265 1.24569 17.3332L1.16201 8.15318L3.26313 8.01523C5.79719 7.84899 8.59279 7.00967 11.5629 5.52343C13.6378 4.48528 17.5191 2.0508 17.7857 1.62032C17.8577 1.50449 18.3106 1.71926 18.7925 2.09765C19.2745 2.47605 20.2778 3.17267 21.0221 3.64572ZM26.106 12.3971C25.8437 12.5393 23.0345 15.2304 19.8634 18.3777L14.0977 24.0998L11.9239 22.0361C10.5611 20.7423 9.55717 19.9726 9.23245 19.9726C8.52771 19.9726 5.96026 22.6721 5.96026 23.4132C5.96026 23.8187 6.97446 24.9241 9.76411 27.5586C12.8062 30.4315 13.7017 31.1509 14.2357 31.1509C14.7941 31.1509 16.1418 29.9151 22.4716 23.5982C27.5646 18.5157 30.0397 15.8833 30.0397 15.5496C30.0397 15.0732 27.221 12.1155 26.7823 12.1312C26.6724 12.1353 26.3682 12.2549 26.106 12.3971ZM21.42 22.7446L14.2221 29.928L10.8131 26.706C7.10654 23.2027 7.16901 23.3318 8.54273 22.0278L9.25891 21.3478L11.701 23.6539L14.143 25.9597L20.3581 19.7595L26.5732 13.5594L27.5955 14.5602L28.6179 15.5613L21.42 22.7446Z" fill="white"/>
</svg>
