<svg width="20" height="20" viewBox="0 0 20 20" fill="none" xmlns="http://www.w3.org/2000/svg">
<path id="&#208;&#152;&#208;&#186;&#208;&#190;&#208;&#189;&#208;&#186;&#208;&#176;" fill-rule="evenodd" clip-rule="evenodd" d="M9.38147 0.0190764C9.00461 0.0411818 8.26209 0.139633 7.86257 0.220413C5.28534 0.741631 3.10674 2.20438 1.65239 4.39002C0.620535 5.94075 0.052674 7.79713 0.00468389 9.77676C-0.0218711 10.8718 0.0620949 11.6363 0.317951 12.6294C1.15665 15.8844 3.63149 18.4684 6.92127 19.5239C8.8219 20.1336 11.0118 20.159 12.88 19.5927C15.2286 18.8809 17.1719 17.4371 18.5036 15.4147C19.5293 13.857 20.0074 12.1725 19.9999 10.1418C19.9943 8.60507 19.7453 7.2829 19.2038 5.9141C18.3896 3.85598 16.7444 2.12987 14.5867 1.06994C13.8725 0.719151 13.3277 0.51297 12.6494 0.336945C11.572 0.0573516 10.5023 -0.0467283 9.38147 0.0190764ZM11.3611 0.931916C13.3733 1.24528 15.2699 2.19264 16.6535 3.5755C17.602 4.52354 18.2086 5.52992 18.644 6.87804C19.2235 8.67217 19.321 10.6186 18.9178 12.3424C18.5603 13.8707 17.7206 15.3178 16.5108 16.4902C16.0129 16.9727 15.6917 17.2319 15.1133 17.6178C14.0703 18.3137 12.8137 18.8106 11.5435 19.0293C8.6282 19.5312 5.54027 18.5409 3.43707 16.4295C1.29335 14.2775 0.406217 11.204 1.0391 8.12168C1.4091 6.31988 2.17096 4.85447 3.4083 3.56478C4.18112 2.75927 5.17642 2.06588 6.17302 1.63868C6.98858 1.28912 8.05863 1.00505 8.88655 0.918338C9.07427 0.898689 9.28163 0.876925 9.34733 0.869966C9.65504 0.837422 11.025 0.879586 11.3611 0.931916ZM14.3136 5.31412C13.6128 5.57195 3.47042 9.63635 3.38594 9.69325C3.26873 9.77219 3.18036 9.90021 3.16882 10.0077C3.1506 10.1777 3.17726 10.2462 3.31443 10.3822C3.43366 10.5004 3.54759 10.56 3.95442 10.7174C4.22662 10.8227 4.83332 11.0571 5.30264 11.2382C5.81866 11.4374 6.19173 11.601 6.24644 11.6521C6.34594 11.7451 6.35099 11.7617 6.84007 13.5985C6.99623 14.185 7.15986 14.7299 7.20368 14.8095C7.26488 14.9205 7.31673 14.9657 7.42698 15.0039C7.55999 15.0501 7.5831 15.0485 7.73956 14.9824C7.8325 14.9432 8.2553 14.662 8.67912 14.3575C9.10294 14.0531 9.47 13.8118 9.49478 13.8213C9.5196 13.8308 10.1916 14.2798 10.9881 14.8191C11.7846 15.3584 12.4857 15.8204 12.5462 15.8459C12.7768 15.9432 13.0226 15.8738 13.121 15.6836C13.1874 15.5553 13.1403 15.7937 14.3165 9.63246C14.5135 8.60053 14.7585 7.33956 14.861 6.83035C14.9636 6.32111 15.0474 5.81599 15.0474 5.70785C15.0474 5.52252 15.0395 5.50372 14.9095 5.38006C14.7935 5.26977 14.7486 5.2491 14.6279 5.25012C14.5489 5.2508 14.4075 5.27959 14.3136 5.31412ZM12.3833 7.17336C12.3374 7.21751 11.1944 8.31688 9.84348 9.61636L7.38718 11.979L7.31123 11.6927C7.26949 11.5352 7.21921 11.3449 7.19952 11.2699C7.14569 11.0648 7.04384 10.922 6.8985 10.8479C6.82672 10.8113 6.49974 10.6807 6.17186 10.5576C5.84398 10.4346 5.42341 10.2745 5.23725 10.2019L4.89876 10.0699L7.79718 8.917C9.3913 8.2829 11.0872 7.60739 11.5659 7.41581C12.0446 7.22426 12.4432 7.07328 12.4516 7.0803C12.46 7.08733 12.4292 7.12922 12.3833 7.17336ZM13.5966 8.40438C13.4601 9.11735 13.1377 10.806 12.8802 12.1568C12.6227 13.5077 12.4082 14.6171 12.4036 14.6222C12.3962 14.6303 11.7791 14.215 9.27497 12.5166L8.63939 12.0856L11.2359 9.58948C12.664 8.21658 13.8352 7.09664 13.8386 7.1007C13.842 7.10476 13.7331 7.69141 13.5966 8.40438ZM8.62321 13.2154C8.62857 13.2193 8.45972 13.3475 8.24796 13.5004L7.86298 13.7784L7.82469 13.6328C7.80363 13.5528 7.73058 13.2772 7.66235 13.0204C7.59412 12.7636 7.53832 12.5362 7.53832 12.515C7.53832 12.4874 8.28718 12.9709 8.62321 13.2154Z" fill="black"/>
</svg>
