<svg width="20" height="20" viewBox="0 0 20 20" fill="none" xmlns="http://www.w3.org/2000/svg">
<path id="&#208;&#152;&#208;&#186;&#208;&#190;&#208;&#189;&#208;&#186;&#208;&#176;" fill-rule="evenodd" clip-rule="evenodd" d="M9.2208 0.0119072C8.28546 0.0976068 7.211 0.344559 6.40775 0.65853C3.01505 1.98448 0.648147 4.94564 0.0876352 8.56532C-0.0208425 9.26598 -0.0215831 10.7538 0.0862411 11.416C0.258194 12.4721 0.619655 13.5927 1.0743 14.4793L1.28294 14.8863L0.627715 17.2276C0.161043 18.8953 -0.0191435 19.6024 0.00159362 19.685C0.0384499 19.8317 0.1681 19.9626 0.312345 19.9988C0.386624 20.0174 1.24059 19.8253 2.85904 19.4258L5.294 18.8248L5.72273 19.0264C6.64178 19.4585 7.56854 19.7454 8.58911 19.9136C9.17136 20.0097 10.6859 20.0228 11.2902 19.9371C13.4919 19.625 15.5121 18.6362 17.0331 17.1263C18.3322 15.8366 19.254 14.2405 19.6966 12.5143C19.9385 11.5707 20 11.0616 20 10.0008C20 8.93999 19.9385 8.43089 19.6966 7.48724C19.0837 5.09692 17.5431 2.95992 15.4506 1.5977C14.9334 1.26091 13.8684 0.738176 13.2942 0.539169C12.7765 0.3598 12.0615 0.18544 11.4626 0.092599C11.0404 0.0271485 9.61477 -0.0241493 9.2208 0.0119072ZM10.8826 0.900692C14.6032 1.2691 17.7603 3.87736 18.782 7.42675C19.0486 8.35312 19.128 8.94352 19.128 10.0008C19.128 10.7848 19.1117 11.0291 19.0277 11.5031C18.6546 13.6102 17.6809 15.3781 16.107 16.806C14.8456 17.9505 13.2731 18.7073 11.508 19.0196C10.6925 19.1639 9.31826 19.1641 8.50455 19.02C7.5465 18.8504 6.78742 18.6022 5.93994 18.1816C5.65703 18.0412 5.3976 17.9263 5.36353 17.9263C5.32942 17.9263 4.34715 18.1615 3.18073 18.449C2.01431 18.7365 1.05666 18.9668 1.05265 18.9607C1.0486 18.9546 1.29666 18.058 1.60384 16.9682C1.91106 15.8785 2.16261 14.9332 2.16283 14.8675C2.16304 14.802 2.03514 14.4933 1.87856 14.1816C1.23062 12.8916 0.924787 11.7297 0.869851 10.3492C0.733753 6.93054 2.52555 3.72656 5.51775 2.03813C7.14309 1.12099 9.04179 0.718406 10.8826 0.900692ZM5.9534 4.84784C5.84558 4.8855 5.67175 4.97765 5.56711 5.05259C5.29443 5.24794 4.87747 5.78513 4.68391 6.19046C4.4233 6.73623 4.36331 7.01763 4.36815 7.67105C4.37294 8.32298 4.47384 8.74277 4.7815 9.39113C5.18591 10.2435 6.09238 11.4404 7.0739 12.4182C8.33272 13.6722 9.42935 14.3416 11.1809 14.9252C11.9647 15.1864 12.3261 15.2453 12.935 15.2111C13.5011 15.1793 13.9207 15.0508 14.4234 14.7551C15.2704 14.2569 15.6365 13.6188 15.6438 12.6286C15.6465 12.2532 15.639 12.219 15.516 12.0459C15.3964 11.8774 15.2932 11.8184 14.2964 11.3482C13.6974 11.0657 13.112 10.8037 12.9953 10.766C12.5099 10.6093 12.3075 10.7141 11.7438 11.4142C11.5131 11.7006 11.2962 11.9528 11.2616 11.9746C11.1771 12.0279 10.4035 11.6617 9.89864 11.3294C9.25147 10.9034 8.3302 9.93925 7.97854 9.31998L7.90103 9.18355L8.1687 8.87271C8.31591 8.70175 8.49797 8.43982 8.57334 8.29063C8.80005 7.84179 8.78506 7.75122 8.28694 6.56061C8.05142 5.99777 7.8136 5.4473 7.7584 5.33739C7.63437 5.09035 7.4026 4.88167 7.1853 4.82136C6.93349 4.75147 6.18317 4.76758 5.9534 4.84784ZM7.39929 6.69125C7.63672 7.25409 7.84022 7.73462 7.8515 7.75914C7.88091 7.82307 7.65934 8.15115 7.38161 8.45488C6.85011 9.03619 6.8661 9.27678 7.49536 10.1679C8.27731 11.2752 9.25291 12.0807 10.4946 12.6443C11.1541 12.9436 11.3058 12.9653 11.6027 12.8025C11.8191 12.6838 12.2481 12.23 12.5594 11.7902C12.628 11.6932 12.7093 11.6134 12.7399 11.6129C12.8085 11.6118 13.5972 11.97 14.2905 12.317L14.8076 12.576L14.7798 12.7855C14.7306 13.1567 14.6227 13.441 14.4649 13.6156C14.2609 13.8412 13.9074 14.0711 13.546 14.2132C13.2806 14.3175 13.193 14.3294 12.6842 14.3307L12.1179 14.3321L11.452 14.1035C10.2258 13.6826 9.60501 13.3658 8.74999 12.7241C7.44939 11.7481 5.98834 9.99835 5.4971 8.82847C5.32484 8.41822 5.21279 7.93637 5.21279 7.60573C5.21279 7.24621 5.34859 6.69939 5.50385 6.43371C5.63904 6.2024 6.06554 5.73998 6.19301 5.6865C6.24093 5.66643 6.4348 5.65401 6.62383 5.65894L6.96756 5.66791L7.39929 6.69125Z" fill="#1C1C1C"/>
</svg>
