<svg width="3" height="8" viewBox="0 0 3 8" fill="none" xmlns="http://www.w3.org/2000/svg">
<g id="&#208;&#152;&#208;&#186;&#208;&#190;&#208;&#189;&#208;&#186;&#208;&#176;" opacity="0.6">
<path id="&#208;&#152;&#208;&#186;&#208;&#190;&#208;&#189;&#208;&#186;&#208;&#176;_2" fill-rule="evenodd" clip-rule="evenodd" d="M0.00590372 7.30876C0.0392486 7.41058 0.124207 7.48171 0.230661 7.49694C0.289474 7.50535 0.340291 7.4966 0.396162 7.46844C0.438884 7.44691 0.471383 7.41808 1.1557 6.79473C1.21724 6.73867 1.42479 6.55014 1.61693 6.37577C1.80906 6.2014 2.01896 6.01078 2.08338 5.95215C2.1478 5.89353 2.24488 5.80519 2.29912 5.75584C2.35336 5.70649 2.52021 5.55492 2.6699 5.41903C2.83693 5.2674 2.94811 5.16247 2.95771 5.14738C2.9843 5.10561 2.9969 5.06621 2.99944 5.01686C3.00242 4.95895 2.99372 4.91836 2.96826 4.87132C2.95053 4.83857 2.93252 4.81985 2.81994 4.71712C2.70078 4.60838 2.36241 4.30086 2.2036 4.15698C2.11772 4.07917 1.37183 3.40137 1.24604 3.28685C0.677778 2.76944 0.444321 2.5593 0.420937 2.54417C0.361567 2.50574 0.282231 2.49095 0.2135 2.5055C0.127285 2.52375 0.0623425 2.57317 0.0244509 2.64935L0.00126395 2.69597L0.00126396 2.76164C0.00126396 2.82631 0.00157508 2.82797 0.0217326 2.87002C0.0465407 2.92179 0.0529651 2.9283 0.298742 3.15091C0.596444 3.42054 0.760521 3.56948 1.0015 3.78882C1.05179 3.83458 1.26118 4.02473 1.46682 4.21136C1.67246 4.39799 1.88124 4.58762 1.93078 4.63276C2.03162 4.72465 2.33102 4.99578 2.33368 4.99762C2.33575 4.99905 2.32823 5.006 2.11878 5.19624C2.02856 5.27819 1.85908 5.43219 1.74216 5.53846C1.62525 5.64473 1.43397 5.81848 1.31711 5.92458C1.20023 6.03068 1.05884 6.15909 1.00289 6.20994C0.94695 6.26079 0.723257 6.46384 0.505803 6.66116C0.28835 6.85849 0.0949779 7.03518 0.0760922 7.0538C0.0511695 7.07837 0.0362738 7.09931 0.0217874 7.13009C0.00335468 7.16926 0.00170081 7.1769 0.000254363 7.22962C-0.000755423 7.26633 0.00126415 7.29459 0.00590372 7.30876Z" fill="#1C1C1C"/>
</g>
</svg>
