<?xml version="1.0" encoding="utf-8"?><svg viewBox="0 0 196 98" xmlns="http://www.w3.org/2000/svg" xmlns:xlink="http://www.w3.org/1999/xlink"><style>:root>svg{display:none}:root>svg:target{display:block}</style><svg viewBox="0 0 16 8" id="arrow-hero" xmlns="http://www.w3.org/2000/svg"><path d="M15.354 4.354a.5.5 0 000-.708L12.172.464a.5.5 0 10-.708.708L14.293 4l-2.829 2.828a.5.5 0 10.708.708l3.182-3.182zM0 4.5h15v-1H0v1z"/></svg><svg viewBox="0 0 16 8" id="arrow-solutions" xmlns="http://www.w3.org/2000/svg"><path d="M15.354 4.354a.5.5 0 000-.708L12.172.464a.5.5 0 10-.708.708L14.293 4l-2.829 2.828a.5.5 0 10.708.708l3.182-3.182zM0 4.5h15v-1H0v1z"/></svg><svg viewBox="0 0 34 34" id="black-bor" xmlns="http://www.w3.org/2000/svg"><path fill-rule="evenodd" clip-rule="evenodd" d="M.168.168L0 .337V4.05l.168.168c.138.138.236.168.549.168h.38v17.549h-.38c-.313 0-.41.03-.549.168L0 22.272v3.714l.168.168.169.169h8.438v3.29H8.12c-.603 0-.668.013-.823.168l-.168.168v3.714l.168.169.169.168h3.714l.168-.168.168-.169V29.95l-.168-.168c-.155-.155-.22-.168-.823-.168h-.654v-3.29h5.947l5.946.001-.24.182c-.714.542-1.494 1.551-1.834 2.376-.402.975-.446 1.26-.48 3.075l-.03 1.693.175.175.175.175h11.392l.175-.175.175-.175-.031-1.693c-.026-1.425-.053-1.769-.168-2.173-.378-1.321-1.021-2.349-1.958-3.128l-.4-.333h4.948l.169-.169.168-.168v-3.714l-.168-.168c-.155-.155-.22-.168-.823-.168h-.654V4.387h.654c.603 0 .668-.013.823-.168L34 4.05V.337l-.168-.169L33.663 0H.337L.168.168zm32.735 2.026V3.29H1.097V1.097h31.806v1.097zM31.258 13.16v8.775h-1.076l-.04-.737c-.104-1.908-1.081-3.41-2.757-4.24a4.528 4.528 0 00-2.16-.505c-.805 0-1.435.147-2.159.506-1.675.829-2.66 2.343-2.757 4.239l-.038.736H2.194V4.388h29.064v8.774zm-27.8-7.509l-.168.168v3.714l.169.169.168.168h13.585l.168-.168.168-.169V5.82l-.168-.168-.168-.168H3.627l-.168.168zm20.808-.07c-1.478.314-2.767 1.29-3.418 2.59-.42.84-.523 1.303-.516 2.316.005.73.032.938.186 1.405.258.786.618 1.36 1.246 1.988.897.898 1.898 1.364 3.11 1.45 2.977.211 5.455-2.257 5.263-5.243a5.23 5.23 0 00-.67-2.189c-.332-.565-1.233-1.45-1.796-1.762-1.01-.561-2.35-.78-3.405-.555zm-7.814 2.095v1.097H4.387V6.581h12.065v1.096zm9.498-1.023c.662.12 1.465.547 1.964 1.046.768.768 1.114 1.612 1.114 2.72 0 1.099-.346 1.95-1.098 2.703-.753.753-1.605 1.099-2.704 1.099-1.107 0-1.951-.346-2.72-1.115-1.62-1.62-1.432-4.332.397-5.718a3.786 3.786 0 013.047-.735zm-.398 3.198l-1.42 1.421-.33-.324c-.18-.178-.36-.324-.398-.324-.09 0-.715.635-.715.727 0 .039.274.339.609.666.896.877.705.953 2.764-1.1.935-.932 1.7-1.727 1.7-1.768 0-.09-.631-.719-.722-.719-.037 0-.706.64-1.488 1.421zM3.46 11.136l-.169.168v3.714l.169.169.168.168H7.34l.168-.168.168-.169v-3.714l-.168-.168-.168-.168H3.627l-.168.168zm5.315.929v.548h8.774v-1.097H8.774v.549zM6.581 13.16v1.097H4.387v-2.193h2.194v1.096zm2.193 1.097v.549h8.774V13.71H8.774v.548zM3.46 16.62l-.169.168v3.714l.169.168.168.169H7.34l.168-.169.168-.168v-3.714l-.168-.168-.168-.168H3.627l-.168.168zm5.315.928v.549h8.774V17H8.774v.548zm-2.193 1.097v1.097H4.387v-2.194h2.194v1.097zm19.887-.874c.638.232 1.037.482 1.464.916.317.322.721.891.721 1.016 0 .021-.821.039-1.825.039h-1.825l-.561.548-.562.549h-1.212c-1.399 0-1.327.048-1.053-.708.224-.617.477-1.023.905-1.45a4.002 4.002 0 011.986-1.068c.481-.104 1.461-.025 1.962.158zM8.774 19.74v.55h8.774v-1.097H8.774v.548zm20.276 1.554c.044.898-.363 1.956-1.023 2.661-1.429 1.527-3.83 1.638-5.352.248a3.78 3.78 0 01-1.048-1.552c-.275-.78-.389-.716 1.277-.716h1.449l.556-.549.557-.548 1.782.017 1.782.017.02.422zm-8.318 2.112c.218.493.528.94.988 1.425l.373.394H1.097v-2.194h19.469l.166.375zm12.171.722v1.097h-4.545l.38-.399c.418-.437.809-1.012 1.013-1.488l.131-.307h3.021v1.097zm-7.129 3.448v1.254l-.274.268-.274.267-.274-.267-.275-.268v-2.508h1.097v1.254zm-1.467 2.45c.93.918.916.918 1.858-.024l.706-.706V26.6l.385.17c1.074.475 2.076 1.51 2.52 2.605.28.69.385 1.37.385 2.498v1.031H20.29v-1.022c0-.597.04-1.233.097-1.53.296-1.545 1.253-2.794 2.7-3.522l.46-.232.034 1.374.034 1.373.692.683zm-13.888 1.78v1.096H8.226V30.71h2.193v1.096z"/></svg><svg viewBox="0 0 34 34" id="gear" xmlns="http://www.w3.org/2000/svg"><path fill-rule="evenodd" clip-rule="evenodd" d="M14.236.158c-.176.142-.21.304-.352 1.704a72.37 72.37 0 00-.16 1.681c-.002.09-.153.174-.45.25-.652.167-1.73.605-2.594 1.054l-.755.392-.799-.66C7.463 3.203 7.331 3.107 7.104 3.107c-.178 0-.604.376-2.019 1.78-.986.98-1.839 1.89-1.895 2.025-.13.313-.065.418 1.14 1.87l.92 1.108-.54 1.09c-.297.599-.65 1.455-.784 1.902l-.244.813-1.603.15c-1.66.157-1.842.2-1.99.476-.119.223-.119 5.135 0 5.358.148.276.33.32 1.99.475l1.603.151.248.829c.137.455.49 1.31.785 1.901l.537 1.073-.921 1.11c-1.207 1.452-1.27 1.556-1.14 1.87.055.134.908 1.046 1.894 2.025 1.415 1.404 1.84 1.78 2.019 1.78.226 0 .36-.096 2.02-1.47l.797-.66 1.06.529c.581.29 1.422.644 1.867.784.445.141.824.295.842.343.018.047.104.802.192 1.676.145 1.443.178 1.605.354 1.748.18.144.407.157 2.801.157 2.445 0 2.617-.01 2.783-.165.193-.18.22-.331.385-2.184.058-.652.127-1.217.155-1.255.027-.039.457-.203.955-.364a15.727 15.727 0 001.864-.78l.957-.485 1.227 1.016c1.254 1.038 1.446 1.159 1.715 1.073.084-.027.977-.876 1.984-1.887 1.43-1.435 1.831-1.887 1.831-2.06 0-.246-.038-.301-1.228-1.735-.463-.56-.842-1.04-.842-1.07 0-.029.23-.523.513-1.098a17.34 17.34 0 00.78-1.872l.267-.828 1.566-.149c1.622-.154 1.814-.2 1.963-.478.054-.102.088-1.144.088-2.72 0-2.55 0-2.556-.198-2.753-.213-.214-.278-.225-2.312-.408l-1.172-.105-.248-.828c-.136-.455-.489-1.31-.784-1.9l-.537-1.073.921-1.11c1.204-1.449 1.27-1.557 1.142-1.867-.144-.348-3.642-3.808-3.85-3.808-.236 0-.536.21-1.76 1.23l-1.075.896-.96-.485a16.526 16.526 0 00-1.859-.783c-.494-.163-.921-.328-.948-.364-.028-.037-.097-.6-.155-1.251C20.04.496 20.013.344 19.82.165 19.654.01 19.482 0 17.037 0c-2.395 0-2.622.013-2.8.158zm4.692 1.546c.028.273.098.974.153 1.558.116 1.207.223 1.428.738 1.524.91.171 2.78.95 3.753 1.565.592.374.732.32 2.074-.799l1.207-1.006 1.3 1.3 1.3 1.301-.993 1.194c-.547.657-1.022 1.284-1.056 1.392-.048.152.05.396.416 1.036a12.76 12.76 0 011.26 2.99c.139.475.313.909.387.963.153.112.455.155 2.138.305l1.187.105v3.731l-1.575.152c-1.222.117-1.608.184-1.723.298-.081.08-.244.48-.363.89a13.24 13.24 0 01-1.22 2.937c-.258.458-.47.925-.47 1.039 0 .137.336.61.993 1.398.546.655.992 1.217.992 1.249 0 .031-.578.634-1.284 1.34l-1.285 1.283-1.221-1.004c-.922-.757-1.281-1.003-1.466-1.003-.137 0-.535.174-.91.4-.807.485-2.257 1.086-3.096 1.283-.895.211-.957.302-1.082 1.607-.056.587-.126 1.29-.154 1.564l-.051.496h-1.843c-1.841 0-1.842 0-1.881-.194-.022-.107-.1-.833-.173-1.614-.087-.92-.175-1.46-.25-1.536-.065-.064-.502-.229-.973-.366-1.116-.325-1.98-.685-2.883-1.204-.718-.412-.858-.467-1.123-.447-.071.006-.67.457-1.33 1.003-.661.546-1.225.992-1.253.992-.027 0-.628-.579-1.335-1.287l-1.285-1.287.994-1.194c.546-.656 1.021-1.283 1.055-1.391.048-.151-.05-.396-.415-1.036a12.73 12.73 0 01-1.258-2.98c-.138-.471-.288-.895-.335-.942-.123-.122-.657-.206-2.107-.333l-1.273-.11v-3.732l1.273-.11c1.45-.127 1.984-.211 2.107-.333.047-.047.2-.477.339-.955.318-1.091.74-2.08 1.298-3.049.332-.575.42-.8.372-.952-.034-.11-.51-.737-1.056-1.393l-.994-1.194L5.833 5.86c.707-.708 1.308-1.287 1.335-1.287.028 0 .592.446 1.252.992 1.373 1.134 1.431 1.153 2.184.7.267-.16.732-.416 1.034-.567.571-.285 2.454-.95 2.7-.952.077 0 .224-.069.325-.152.162-.133.2-.317.317-1.575.074-.783.151-1.511.173-1.618.039-.194.04-.194 1.881-.194h1.843l.051.496zm-2.935 5.374c-2.844.29-5.66 1.976-7.205 4.314-1.195 1.808-1.711 3.503-1.711 5.616 0 5.187 3.887 9.426 9.089 9.912 2.897.27 5.673-.728 7.784-2.8 1.676-1.646 2.586-3.417 2.93-5.707.165-1.086.163-1.729-.004-2.857-.619-4.168-3.748-7.48-7.848-8.31-.978-.197-2.126-.26-3.035-.168zm1.8 1.208c3.708.351 6.765 2.938 7.707 6.523a8.715 8.715 0 01-2.022 8.077c-.839.903-1.578 1.456-2.638 1.971-1.042.508-1.887.747-3.01.854a8.7 8.7 0 01-8.347-4.278C8.654 20.022 8.287 18.661 8.287 17a8.727 8.727 0 017.807-8.712l.69-.078c.048-.007.502.027 1.01.076zm1.197 7.269c-.881.866-1.94 1.903-2.354 2.304l-.753.73-1.244-1.226c-1.357-1.338-1.55-1.44-1.938-1.026-.369.392-.293.514 1.351 2.15 1.36 1.356 1.571 1.533 1.819 1.533.25 0 .554-.267 2.867-2.518 1.424-1.385 2.624-2.586 2.669-2.67.218-.406-.065-.852-.54-.852-.24 0-.475.196-1.877 1.575z"/></svg><svg viewBox="0 0 24 34" id="geas" xmlns="http://www.w3.org/2000/svg"><path fill-rule="evenodd" clip-rule="evenodd" d="M10.425.038c-.099.024-.502.105-.896.18-2.097.404-4.21 1.543-5.876 3.167C.433 6.522-.757 10.977.478 15.269c.407 1.411.841 2.492 1.745 4.34 1.863 3.807 4.579 7.93 8.352 12.679C11.323 33.23 11.96 34 11.99 34c.067 0 1.68-1.964 2.705-3.293 4.391-5.697 7.604-11.271 8.765-15.207.383-1.295.541-2.326.541-3.516 0-5.602-3.974-10.53-9.498-11.778-.652-.147-3.65-.271-4.077-.168zm3.32 1.708c3.522.619 6.588 3.114 7.839 6.378.538 1.406.666 2.132.667 3.77 0 1.318-.027 1.598-.24 2.444-.648 2.578-2.356 6.069-4.832 9.877-1.26 1.937-3.56 5.106-5.03 6.929l-.156.194-.182-.225c-.638-.79-3.175-4.237-3.952-5.37-3.025-4.41-5.084-8.409-5.83-11.323-.928-3.63.131-7.292 2.88-9.953a10.095 10.095 0 015.261-2.715c.948-.173 2.61-.175 3.575-.006zM10.82 7.603c-1.942.54-3.39 2.434-3.396 4.444-.005 2.081 1.53 4 3.593 4.49 1.008.24 1.98.12 3.021-.373.618-.292 1.661-1.319 2.009-1.976 1.366-2.586-.076-5.826-2.934-6.593-.554-.149-1.743-.145-2.293.008zm2.22 1.778c.704.265 1.367.937 1.636 1.658.52 1.393-.147 2.992-1.518 3.638-.394.186-.628.233-1.165.232-.824-.002-1.329-.209-1.959-.802-.619-.582-.858-1.16-.861-2.078-.003-.882.221-1.412.866-2.046.785-.772 1.936-1.003 3-.602z"/></svg><svg viewBox="0 0 21 30" id="geas-com" xmlns="http://www.w3.org/2000/svg"><path fill-rule="evenodd" clip-rule="evenodd" d="M8.052.279C4.317 1.183 1.156 4.443.24 8.337c-.427 1.818-.276 4.274.388 6.283.672 2.032 2.613 6.01 4.172 8.55C7.073 26.872 9.632 30 10.39 30c1.183 0 5.493-6.084 8.052-11.368 1.625-3.355 2.19-5.133 2.31-7.26C21.148 4.28 14.72-1.336 8.052.28zm4.794 5.526c2.969 1.738 3.483 5.572 1.072 7.982-1.984 1.983-5.073 1.983-7.057 0C4.2 11.13 5.174 6.745 8.716 5.424c1.115-.416 3.079-.235 4.13.38z"/><defs><radialGradient id="fa" cx="0" cy="0" r="1" gradientUnits="userSpaceOnUse" gradientTransform="matrix(30.59254 69.13044 -238.97646 105.75511 -8.65 -25.29)"><stop stop-color="#E92FED"/><stop offset="1" stop-color="#971AB6"/></radialGradient></defs></svg><svg viewBox="0 0 20 20" id="insta" xmlns="http://www.w3.org/2000/svg"><path fill-rule="evenodd" clip-rule="evenodd" d="M5.205.01A6.163 6.163 0 002.53 1.03c-.454.308-1.196 1.05-1.504 1.506a6.36 6.36 0 00-.939 2.172L0 5.098v4.885c0 4.574.004 4.906.07 5.227.486 2.392 2.263 4.193 4.657 4.719.308.067.587.071 5.263.071h4.937l.397-.089c2.182-.489 3.886-2.098 4.479-4.227.204-.734.2-.606.196-5.66-.002-3.043-.017-4.79-.043-4.978-.225-1.62-1.19-3.143-2.58-4.071a6.229 6.229 0 00-2.094-.886C14.93.008 14.885.007 10.124 0 7.482-.003 5.268.001 5.205.01zm10.089 1.015c1.753.484 3.031 1.681 3.574 3.346.239.73.23.544.23 5.65 0 4.344-.004 4.677-.069 5-.41 2.033-1.889 3.546-3.92 4.01-.372.084-.388.084-4.851.098-3.123.01-4.594 0-4.861-.03-2.153-.24-3.789-1.656-4.377-3.788l-.101-.367-.01-4.789C.897 5.451.898 5.36.976 4.953a5.013 5.013 0 012.42-3.403c.387-.227.99-.455 1.463-.553l.422-.089 4.822.008 4.823.008.367.101zm-.155 2.657a.918.918 0 00-.484.455c-.29.622.13 1.292.808 1.292.29 0 .48-.085.677-.303.174-.193.235-.38.215-.66a.884.884 0 00-.848-.831.836.836 0 00-.368.047zm-5.991 1.38A5.06 5.06 0 006.39 6.54a4.913 4.913 0 00-1.34 2.673c-.087.52-.06 1.442.053 1.9.378 1.517 1.312 2.7 2.675 3.385a4.72 4.72 0 001.805.501c2.165.19 4.24-1.093 5.054-3.126a4.98 4.98 0 00-.497-4.667c-.725-1.065-1.748-1.769-3.041-2.094-.415-.104-1.509-.132-1.952-.05zm1.226.864a4.138 4.138 0 012.609 1.273 4.122 4.122 0 01.427 5.082c-.202.311-.82.932-1.124 1.131-1.623 1.061-3.696.893-5.097-.414C5.744 11.65 5.48 9.416 6.57 7.753a4.117 4.117 0 013.002-1.827l.343-.037c.023-.003.229.014.458.037z"/><defs><radialGradient id="ga" cx="0" cy="0" r="1" gradientUnits="userSpaceOnUse" gradientTransform="matrix(29.45923 46.08715 -195.36778 124.88046 -8.33 -16.86)"><stop stop-color="#E92FED"/><stop offset="1" stop-color="#971AB6"/></radialGradient></defs></svg><svg viewBox="0 0 196 98" id="logo" xmlns="http://www.w3.org/2000/svg"><g clip-path="url(#ha)"><path d="M152.723 4.445V.643h3.236v3.802h-3.236zm41.506 25.223h1.646v1.91h-1.646v-1.91zM171.554 3.856h1.609v1.856h-1.609V3.856zm18.276 10.71h1.61v1.857h-1.61v-1.857zm-1.252 12.263h1.61v1.857h-1.61v-1.857zm-2.879-9.942h3.219v3.73h-3.219v-3.73zm-9.496 14.084h3.201v3.713h-3.201V30.97zM157.05 67.065h3.219v3.73h-3.219v-3.73zm15.666-4.641h3.219v3.713h-3.219v-3.713zm-4.828-5.41h3.201v3.714h-3.201v-3.713zm11.785-30.06h3.201v3.713h-3.201v-3.713zM164.078 2.322h3.201v3.713h-3.201V2.32zm3.72 4.23h3.219v3.713h-3.219V6.551zm-15.075 59.871V62.62h3.254v3.802h-3.254zm0-5.176V57.46h3.236v3.785h-3.236zm5.168 0V57.46h3.255v3.785h-3.255zm-15.523-5.16v-3.801h3.237v3.802h-3.237zm5.168 0v-3.801h3.255v3.802h-3.255zm5.169 0v-3.801h3.237v3.802h-3.237zm5.186 0v-3.801h3.237v3.802h-3.237zm5.168 0v-3.801h3.255v3.802h-3.255zm-10.354-5.158v-3.802h3.237v3.802h-3.237zm5.186 0v-3.802h3.237v3.802h-3.237zm10.175 0v-3.802h3.237v3.802h-3.237zm-4.989 0v-3.802h3.237v3.802h-3.237zm-10.354-5.177V41.95h3.254v3.802h-3.254zm5.168 0V41.95h3.237v3.802h-3.237zm10.175 0V41.95h3.237v3.802h-3.237zm-4.989 0V41.95h3.237v3.802h-3.237zm-10.337-5.159V36.79h3.237v3.802h-3.237zm5.169 0V36.79h3.254v3.802h-3.254zm10.157 0V36.79h3.255v3.802h-3.255zm-5.007 0V36.79h3.255v3.802h-3.255zm-10.354-5.158V31.63h3.237v3.803h-3.237zm5.186 0V31.63h3.237v3.803h-3.237zm10.175 0V31.63h3.237v3.803h-3.237zm-4.989 0V31.63h3.237v3.803h-3.237zm-10.354-5.177v-3.802h3.236v3.802h-3.236zm15.361 0v-3.802h3.237v3.802h-3.237zm-5.007 0v-3.802h3.255v3.802h-3.255zm-10.354-5.159v-3.802h3.236v3.802h-3.236zm5.186 0v-3.802h3.237v3.802h-3.237zm10.175 0v-3.802h3.237v3.802h-3.237zm-4.989 0v-3.802h3.237v3.802h-3.237zM152.74 19.94v-3.802h3.255v3.802h-3.255zm5.169 0v-3.802h3.237v3.802h-3.237zm10.175 0v-3.802h3.237v3.802h-3.237zm-4.989 0v-3.802h3.237v3.802h-3.237zm-10.337-5.177V10.96h3.237v3.802h-3.237zm5.169 0V10.96h3.254v3.802h-3.254zm5.168 0V10.96h3.237v3.802h-3.237zm-15.523-5.158V5.8h3.255v3.803h-3.255zm5.168 0V5.8h3.237v3.803h-3.237zm5.187 0V5.8h3.236v3.803h-3.236zm-15.523-5.177V.625h3.237v3.802h-3.237zm5.168 0V.625h3.255v3.802h-3.255zM48.052.286l49.25-.161 10.444 10.8.197 44.59L96.909 66.69l-23.266-.018-5.311-13.763h20.834V14.96h-22.64v33.256L48.052.285z"/><path fill-rule="evenodd" clip-rule="evenodd" d="M50.02 52.856H21.96L16.919 66.69H1.842L26.02.286h18.402l25.59 66.404h-14.95L50.02 52.856zM140.507.089l.018 5.659 5.079.071.018 5.124 5.186.017v3.838l-21.03.072v37.36h10.783l-.036 5.248h5.097v5.177h5.186l-.036 4.052h-8.816v-3.624h-3.219v3.624H101.2l9.907-10.014-.178-46.573L101.702.107 140.508.09zm-7.278 11.8h3.201V8.175h-3.201v3.713zM33.12 39.022h11.874L36 14.459 23.534 48.607l9.586-9.585zM2.629 90.11l-.465 2.446H.912l2.325-12.139h1.967L7.53 92.556H6.17l-.464-2.446H2.629zm.179-1.16h2.7L4.15 81.952 2.808 88.95zm8.512-8.55c1.896 0 2.647.91 2.647 2.695v.57c0 1.286-.376 2.09-1.43 2.41 1.18.34 1.627 1.268 1.627 2.607v1.017c0 1.821-.877 2.857-2.772 2.857H8.584V80.399h2.736zm-.322 5.158c1.073 0 1.628-.34 1.628-1.607v-.713c0-1.072-.358-1.607-1.342-1.607h-1.34v3.927h1.054zm.412 5.766c.983 0 1.448-.518 1.448-1.66v-1.071c0-1.357-.554-1.803-1.717-1.803h-1.18v4.534h1.449zm9.28-7.997v.321h-1.287v-.393c0-1.088-.411-1.731-1.394-1.731-.966 0-1.378.642-1.378 1.713 0 2.714 4.078 2.982 4.078 6.391 0 1.856-.877 3.052-2.736 3.052-1.86 0-2.736-1.196-2.736-3.052v-.678h1.27v.75c0 1.106.446 1.749 1.43 1.749.966 0 1.413-.643 1.413-1.75 0-2.695-4.06-2.963-4.06-6.372 0-1.874.877-3.035 2.7-3.035 1.843 0 2.7 1.196 2.7 3.035zm1.092.018c0-1.857.93-3.053 2.79-3.053 1.877 0 2.79 1.196 2.79 3.053v6.283c0 1.839-.913 3.052-2.79 3.052-1.86 0-2.79-1.213-2.79-3.052v-6.283zm1.341 6.337c0 1.106.465 1.749 1.449 1.749.983 0 1.448-.643 1.448-1.75v-6.408c0-1.106-.465-1.767-1.448-1.767-.984 0-1.449.66-1.449 1.767v6.409zm5.526 2.856V80.399h1.36v10.907h3.486v1.232H28.65zm7.135-2.856c0 1.088.43 1.749 1.431 1.749.966 0 1.395-.66 1.395-1.75V80.4h1.27v9.211c0 1.839-.84 3.07-2.719 3.07-1.86 0-2.718-1.231-2.718-3.07V80.4h1.341v9.282zm7.19 2.856V81.63h-2.236v-1.232h5.83v1.232h-2.253v10.907h-1.342zm8.834-6.766v1.214h-2.969v4.32h3.648v1.232H47.48V80.399h5.007v1.232H48.84v4.141h2.969zm7.475-5.373c1.895 0 2.754 1.143 2.754 3.017v6.123c0 1.856-.858 2.999-2.754 2.999h-2.861V80.399h2.86zm-.018 10.907c.984 0 1.449-.607 1.449-1.714v-6.247c0-1.107-.465-1.714-1.467-1.714H57.8v9.675h1.466zm8.37-5.534v1.214h-2.97v4.32h3.649v1.232h-5.007V80.399h5.007v1.232h-3.648v4.141h2.968zm6.08.286v1.232h-2.79v5.248h-1.36V80.399h4.83v1.232h-3.47v4.427h2.79zm6.08-.286v1.214h-2.969v4.32h3.649v1.232h-5.008V80.399h5.008v1.232h-3.649v4.141h2.969zm3.112 6.766H81.69V80.399h1.734l2.808 8.765v-8.765h1.198v12.139h-1.413l-3.111-9.818v9.818zm11.284-9.211v1.089h-1.288v-1.16c0-1.09-.429-1.75-1.412-1.75-.984 0-1.431.66-1.431 1.75v6.426c0 1.088.447 1.749 1.43 1.749.984 0 1.413-.66 1.413-1.75v-1.588h1.288v1.517c0 1.839-.859 3.053-2.736 3.053-1.86 0-2.736-1.214-2.736-3.053v-6.283c0-1.839.876-3.053 2.736-3.053 1.877 0 2.736 1.214 2.736 3.053zm5.562 2.445v1.214h-2.969v4.32h3.648v1.232h-5.007V80.399h5.007v1.232h-3.648v4.141h2.969zm7.475-5.373c1.895 0 2.772 1.143 2.772 3.017v6.123c0 1.856-.877 2.999-2.772 2.999h-2.844V80.399h2.844zm-.018 10.907c.966 0 1.431-.607 1.431-1.714v-6.247c0-1.107-.465-1.714-1.449-1.714h-1.466v9.675h1.484zm5.401-10.907v12.139h-1.359V80.399h1.359zm6.67 2.91v.321h-1.288v-.392c0-1.09-.429-1.732-1.394-1.732-.966 0-1.395.643-1.395 1.714 0 2.73 4.095 2.98 4.095 6.408 0 1.839-.894 3.035-2.754 3.035-1.86 0-2.718-1.196-2.718-3.035v-.696h1.252v.767c0 1.09.464 1.732 1.43 1.732.984 0 1.431-.643 1.431-1.731 0-2.714-4.078-2.982-4.078-6.391 0-1.874.877-3.035 2.701-3.035 1.842 0 2.718 1.196 2.718 3.035zm2.951 9.229V81.63h-2.236v-1.232h5.812v1.232h-2.235v10.907h-1.341zm7.207-12.139c1.913 0 2.718.964 2.718 2.767v.982c0 1.339-.465 2.178-1.52 2.499 1.109.34 1.538 1.232 1.538 2.535v1.892c0 .535.018 1.053.232 1.464h-1.359c-.161-.357-.232-.66-.232-1.482v-1.91c0-1.357-.644-1.803-1.771-1.803h-.965v5.195h-1.342V80.399h2.701zm-.358 5.713c1.073 0 1.717-.34 1.717-1.66v-1.16c0-1.09-.394-1.661-1.395-1.661h-1.323v4.48h1.001zm5.83-5.713v12.139h-1.359V80.399h1.359zm4.131 0c1.896 0 2.647.893 2.647 2.678v.571c0 1.285-.376 2.089-1.431 2.41 1.18.34 1.627 1.267 1.627 2.606V89.7c0 1.821-.876 2.839-2.771 2.839h-2.808v-12.14h2.736zm-.322 5.141c1.073 0 1.628-.339 1.628-1.606v-.714c0-1.071-.358-1.589-1.342-1.589h-1.341v3.91h1.055zm.411 5.766c.984 0 1.431-.518 1.431-1.642v-1.09c0-1.338-.536-1.802-1.699-1.802h-1.18v4.534h1.448zm5.312-1.624c0 1.088.429 1.749 1.413 1.749.983 0 1.412-.66 1.412-1.75V80.4h1.27v9.211c0 1.839-.858 3.07-2.736 3.07-1.86 0-2.7-1.231-2.7-3.07V80.4h1.341v9.282zm7.189 2.856V81.63h-2.236v-1.232h5.812v1.232h-2.235v10.907h-1.341zm5.848-12.139v12.139h-1.342V80.399h1.342zm1.269 2.928c0-1.857.93-3.053 2.79-3.053 1.878 0 2.79 1.196 2.79 3.053v6.283c0 1.839-.912 3.053-2.79 3.053-1.86 0-2.79-1.214-2.79-3.053v-6.283zm1.342 6.337c0 1.124.482 1.767 1.448 1.767.984 0 1.449-.643 1.449-1.767v-6.409c0-1.088-.465-1.749-1.449-1.749-.966 0-1.448.66-1.448 1.75v6.408zm6.724 2.856h-1.216V80.38h1.734l2.808 8.783V80.38h1.198v12.14h-1.413l-3.111-9.818v9.818z"/><path d="M.107 96.929H171.34v1.017H.107V96.93z"/></g><defs><linearGradient id="hb" x1="73366.1" y1="18315.2" x2="59056.7" y2="5631.18" gradientUnits="userSpaceOnUse"><stop stop-color="#E42121"/><stop offset="1" stop-color="#B61A99"/></linearGradient><clipPath id="ha"><path d="M0 0h196v98H0z"/></clipPath></defs></svg><svg viewBox="0 0 31 20" id="mail" xmlns="http://www.w3.org/2000/svg"><path fill-rule="evenodd" clip-rule="evenodd" d="M2.854.049a2.925 2.925 0 00-1.039.439c-.165.112-.3.217-.3.234 0 .026 1.136 1.09 2.827 2.647l.41.377.425.395c.185.174.365.34.4.37l.378.348c1.41 1.305 4.194 3.88 4.442 4.107.169.155 1.097 1.015 2.063 1.91.966.895 1.825 1.679 1.91 1.742.826.618 2.02.606 2.812-.027.143-.114 3.024-2.79 3.87-3.593.14-.134.348-.329.46-.432.493-.452.91-.84 1.417-1.32l.648-.607a22476.471 22476.471 0 005.01-4.679c.776-.717 1.296-1.211 1.296-1.23 0-.061-.539-.402-.818-.518-.56-.23.491-.214-13.412-.21C5.81.005 3.02.015 2.854.05zM.938 1.61c-.16.391-.152-.037-.164 8.2-.012 7.779-.009 8.019.11 8.423.1.339.015.38 1.245-.613a1284.618 1284.618 0 013.836-3.098c4.135-3.33 4.79-3.86 4.79-3.883 0-.023-.203-.215-2.608-2.465a886.745 886.745 0 01-2.592-2.426c-.13-.121-.43-.4-.664-.62L3.73 4.041c-.403-.377-.825-.772-.937-.879-.832-.789-1.766-1.65-1.789-1.65-.015 0-.045.044-.067.097zm28.502.854a208.463 208.463 0 01-1.74 1.63c-.215.2-.506.472-.646.607a3725.97 3725.97 0 00-6.13 5.746l-.147.137 1.799 1.377 2.311 1.77 2.842 2.175c2.49 1.903 2.883 2.2 2.908 2.2.015 0 .052-.08.08-.178.047-.158.053-1.052.052-7.927V2.253l-.08-.258c-.085-.279-.179-.483-.218-.48-.014 0-.478.428-1.031.95zm-9.6 8.99c-.113.109-.38.36-.595.559-.214.199-.605.563-.868.81-.685.642-.981.846-1.52 1.044-.624.23-1.547.237-2.147.018-.529-.194-.858-.408-1.406-.913l-.74-.68a55.774 55.774 0 01-.563-.524c-.283-.267-.482-.444-.502-.444-.017 0-.505.386-2.616 2.068a5001.54 5001.54 0 01-6.445 5.123c-.51.405-.92.753-.913.774.023.07.48.364.733.471.137.058.39.136.56.173.306.066.544.067 12.866.067 12.343 0 12.56-.001 12.874-.067.46-.098.809-.252 1.14-.503.22-.165.458-.398.458-.446 0-.02-.188-.178-.418-.35a132.2 132.2 0 01-.929-.705c-.281-.216-1.171-.895-1.977-1.508l-2.08-1.585c-.338-.258-1.205-.92-1.927-1.468-.722-.55-1.64-1.25-2.039-1.556-.4-.306-.73-.556-.733-.556-.004 0-.1.09-.213.198z"/><defs><radialGradient id="ia" cx="0" cy="0" r="1" gradientUnits="userSpaceOnUse" gradientTransform="matrix(44.1892 46.08699 -215.06827 206.21207 -11.725 -16.86)"><stop stop-color="#E92FED"/><stop offset="1" stop-color="#971AB6"/></radialGradient></defs></svg><svg viewBox="0 0 31 30" id="mobile" xmlns="http://www.w3.org/2000/svg"><path fill-rule="evenodd" clip-rule="evenodd" d="M16.95.033a.803.803 0 00-.382.331c-.055.1-.064.143-.064.307 0 .155.01.209.053.286.138.246.29.337.71.422a18.2 18.2 0 012.433.706c3.215 1.219 5.823 3.327 7.525 6.084a14.34 14.34 0 012.039 6.054c.04.392.08 1.343.075 1.826-.003.29.003.338.048.43.12.246.37.406.635.409.263.002.46-.09.607-.281.142-.185.149-.248.136-1.185-.013-.908-.043-1.282-.162-2.08a15.513 15.513 0 00-5.721-9.903C22.976 1.919 20.704.81 18.223.19 17.466 0 17.16-.037 16.95.033zM6.84 3.011a6.96 6.96 0 00-1.202.2c-1.423.34-2.414.927-3.27 1.934A6.405 6.405 0 00.98 7.865c-.141.572-.19.95-.208 1.608-.018.676.024 1.113.185 1.9.455 2.229 1.802 4.896 3.92 7.756.898 1.215 1.909 2.403 3.415 4.013 1.304 1.395 2.715 2.669 4.048 3.657 1.057.784 2.694 1.802 3.551 2.209a10.138 10.138 0 004.817.983c.627-.027.967-.067 1.375-.162 1.334-.308 2.474-1.034 3.388-2.156.656-.805 1.14-1.829 1.315-2.777.061-.33.088-.972.05-1.168-.062-.309-.276-.587-.629-.817-.575-.376-2.169-1.111-3.424-1.58a31.652 31.652 0 01-.87-.34c-.502-.209-.675-.27-1.402-.497-.732-.228-.858-.253-1.077-.218-.505.08-1.118.66-1.663 1.572-.244.41-.548.736-.799.857-.155.076-.446.076-.671.003-.385-.127-.617-.26-1.401-.804-1.14-.79-1.565-1.1-1.908-1.393-1.375-1.173-2.19-2.056-3.108-3.371a14.788 14.788 0 01-1.102-1.799c-.557-1.047-.79-1.584-.89-2.046-.087-.407-.1-.592-.05-.717.094-.23.435-.43 1.332-.779.787-.305 1.064-.451 1.381-.73.293-.257.411-.48.41-.773 0-.349-.344-2.172-.602-3.195a37.61 37.61 0 01-.193-.82c-.144-.644-.347-1.429-.44-1.698a3.44 3.44 0 00-.509-.94 1.746 1.746 0 00-.612-.469c-.229-.109-.38-.14-.824-.165a5.809 5.809 0 00-.946.002zm9.953.975c-.516.174-.657.8-.257 1.142.136.116.185.136.596.238a11.3 11.3 0 013.794 1.742c1.895 1.36 3.24 3.28 3.844 5.49.221.808.323 1.504.352 2.395.016.492.018.51.082.633.078.15.19.251.368.328.11.048.153.054.31.045a.703.703 0 00.621-.39c.056-.107.058-.126.056-.594a8.745 8.745 0 00-.118-1.455c-.463-3.06-2.124-5.75-4.672-7.56a12.62 12.62 0 00-4.258-1.956c-.39-.096-.564-.11-.718-.058zm-.232 4.13a.723.723 0 00-.536.374.669.669 0 00.144.776c.119.113.18.14.535.23.418.105.71.209 1.104.393 1.585.741 2.645 2.1 2.954 3.788.03.166.057.444.068.722.017.413.024.461.079.574.07.146.195.268.347.34.088.04.15.05.312.05.179 0 .215-.007.328-.066a.7.7 0 00.336-.365c.094-.238.05-1.037-.093-1.71-.496-2.33-2.247-4.193-4.63-4.925-.535-.165-.76-.208-.948-.182z"/><defs><radialGradient id="ja" cx="0" cy="0" r="1" gradientUnits="userSpaceOnUse" gradientTransform="matrix(44.1892 69.13049 -293.04984 187.32168 -11.725 -25.29)"><stop stop-color="#E92FED"/><stop offset="1" stop-color="#971AB6"/></radialGradient></defs></svg><svg viewBox="0 0 25 34" id="paper" xmlns="http://www.w3.org/2000/svg"><path fill-rule="evenodd" clip-rule="evenodd" d="M1.128.078A1.707 1.707 0 00.17.897l-.17.35V32.84l.183.325c.202.358.716.745 1.076.81.127.024 5.261.033 11.41.02 12.41-.023 11.346.023 11.876-.514.483-.49.457.364.454-14.467-.002-10.416-.023-13.494-.093-13.616-.075-.13-3.037-3.054-4.988-4.925L19.425 0l-9.042.006C5.41.01 1.245.042 1.128.078zm17.54 2.926c0 1.8.007 1.885.175 2.25.185.403.522.712.934.855.168.059.907.089 2.18.089h1.927v13.174c0 13.154 0 13.175-.152 13.34l-.152.165-11.082-.001c-6.095 0-11.119-.026-11.164-.057-.253-.171-.253-.206-.253-15.87 0-15.479 0-15.485.151-15.65l.152-.165h17.283l.001 1.87zm2.794.513l1.565 1.544-1.472.001c-1.923.002-1.77.149-1.77-1.699 0-.769.025-1.396.056-1.394.03.002.76.698 1.62 1.548zM3.638 6.437c-.358.178-.378.777-.032.965.1.054 1.575.08 4.502.08 4.292 0 4.357-.002 4.55-.156.238-.19.26-.504.054-.761l-.142-.179-4.385-.014c-2.98-.01-4.437.01-4.547.066zm.135 3.71c-.418.11-.564.527-.295.842l.173.203 9-.001c6.162-.001 9.046-.027 9.147-.081.285-.155.285-.752 0-.906-.17-.093-17.678-.149-18.025-.058zm-.135 3.774a.63.63 0 00-.248.29c-.108.263.058.636.314.705.094.026 4.165.047 9.047.048 8.868 0 8.877 0 9.073-.156a.515.515 0 000-.82c-.196-.157-.201-.157-9.11-.152-6.08.004-8.965.03-9.076.085zm.2 3.677c-.508.072-.666.755-.23.991.209.114 17.98.117 18.19.004.285-.156.285-.752-.001-.908-.101-.054-2.924-.085-8.96-.096-4.847-.01-8.897-.005-9 .01zm-.169 3.768c-.072.019-.184.137-.248.263-.145.284-.04.604.24.733.13.06 1.452.085 4.506.085h4.322l.183-.185c.249-.253.243-.587-.014-.792-.194-.155-.252-.156-4.527-.148-2.382.005-4.39.025-4.462.044zm13.9.442a3.442 3.442 0 00-1.59.935 3.488 3.488 0 00-.956 3.196c.096.466.468 1.28.672 1.466.077.071.14.172.14.225 0 .052-.402.68-.894 1.396-.492.715-.894 1.362-.894 1.438 0 .075.075.226.168.334.14.164.272.212.8.288l.634.09.261.5c.347.666.424.748.703.748.294 0 .427-.141 1.197-1.266.32-.468.601-.85.626-.849.025.002.358.46.74 1.02.73 1.07.873 1.188 1.272 1.048.162-.057.537-.629.77-1.175.01-.027.299-.083.64-.125.71-.086.908-.213.908-.581 0-.187-.204-.538-.895-1.537l-.894-1.296.257-.363c.772-1.09.88-2.418.297-3.626-.717-1.485-2.42-2.287-3.962-1.866zm1.88 1.244c.72.353 1.244 1.106 1.346 1.934.086.698-.248 1.523-.854 2.104-.382.368-.332.539.515 1.778.772 1.129.796 1.209.36 1.212-.185 0-.402.195-.621.557-.061.1-.19-.044-.708-.8-.948-1.382-1.141-1.426-1.834-.418-.235.343-.545.79-.688.991l-.26.368-.137-.27c-.144-.284-.33-.427-.56-.428-.382-.004-.356-.117.227-.972.314-.46.654-.961.756-1.114.272-.406.24-.581-.182-1.022-.486-.506-.689-.954-.73-1.615-.028-.423-.001-.62.133-.98.218-.586.776-1.164 1.34-1.39.548-.22 1.376-.192 1.897.065z"/></svg><svg viewBox="0 0 15 18" id="phone" xmlns="http://www.w3.org/2000/svg"><path fill-rule="evenodd" clip-rule="evenodd" d="M3.41.007c-.019.007-.173.054-.343.105C1.794.489.302 1.438.077 2.012c-.092.234-.1.453-.033 1.021a18.942 18.942 0 003.162 8.443c1.748 2.579 4.133 4.713 6.944 6.216.52.278.669.323 1.005.304.314-.018.547-.12 1.122-.489.508-.327.786-.551 1.266-1.024.715-.706.924-1.066.882-1.524-.036-.399-.185-.632-.695-1.087l-1.356-1.218c-1.319-1.188-1.428-1.263-1.867-1.28-.275-.011-.23-.022-1.511.346a5.06 5.06 0 01-.473.121c-.056 0-.75-.708-1.11-1.134A16.097 16.097 0 015.14 7.143a4.845 4.845 0 01-.177-.422c-.022-.084.048-.18.769-1.058.339-.412.456-.65.48-.969.021-.288.093-.07-.817-2.468-.307-.81-.599-1.545-.648-1.635C4.55.234 4.175.02 3.72.003a2.018 2.018 0 00-.31.004zm.575.768c.135.093.147.12.578 1.253.885 2.33.935 2.47.935 2.613 0 .185-.027.225-.727 1.09-.526.65-.594.747-.593.857.001.278.708 1.723 1.32 2.697.33.528 1.083 1.558 1.335 1.829.035.037.198.22.362.406.165.186.47.502.677.702.345.332.389.364.507.364.071 0 .531-.115 1.022-.256.491-.14.944-.263 1.007-.271a.47.47 0 01.24.044c.164.077 2.925 2.553 3.005 2.694.098.173.08.39-.05.585-.182.271-1.043 1.089-1.425 1.352-.422.291-.784.5-.963.557-.177.057-.302.018-.784-.24a18.847 18.847 0 01-6.114-5.21C2.457 9.38 1.27 6.526.806 3.411.694 2.655.682 2.394.753 2.247c.113-.234.91-.784 1.624-1.12A8.623 8.623 0 013.548.69c.12-.03.334.012.437.084zm6.356 2.29c-.11.018-.252.197-.252.317 0 .144.085.285.197.326.053.02.26.084.457.143 1.639.493 2.953 1.78 3.454 3.386.16.513.173.54.28.594.152.077.292.061.416-.047.094-.082.109-.118.107-.251-.003-.194-.274-.986-.464-1.359a5.96 5.96 0 00-3.497-2.96c-.446-.142-.579-.17-.698-.15zM9.585 6.15a.345.345 0 00-.209.355c.024.18.131.27.426.355.6.174 1.145.71 1.33 1.307.092.295.21.423.39.423.1 0 .154-.026.25-.12.112-.11.12-.13.1-.27-.053-.38-.321-.886-.678-1.276-.41-.45-1.327-.891-1.609-.774z"/><defs><radialGradient id="la" cx="0" cy="0" r="1" gradientUnits="userSpaceOnUse" gradientTransform="rotate(61.957 9.514 -12.79) scale(46.9959 182.162)"><stop stop-color="#E92FED"/><stop offset="1" stop-color="#971AB6"/></radialGradient></defs></svg><svg viewBox="0 0 31 30" id="repair" xmlns="http://www.w3.org/2000/svg"><path fill-rule="evenodd" clip-rule="evenodd" d="M14.365.035A15.339 15.339 0 006.284 3.35c-.667.543-1.724 1.608-2.256 2.274-1.346 1.685-2.45 3.963-2.906 6.004-.288 1.282-.353 1.906-.353 3.376s.065 2.094.353 3.376c.467 2.085 1.599 4.397 2.99 6.106.542.667 1.607 1.724 2.273 2.256 1.685 1.346 3.964 2.448 6.005 2.906 1.282.287 1.906.352 3.377.352 1.47 0 2.094-.065 3.376-.352 1.534-.344 3.541-1.201 4.86-2.077a14.964 14.964 0 005.242-5.962c.735-1.499 1.152-2.84 1.415-4.55.146-.946.146-3.164 0-4.11-.263-1.709-.68-3.051-1.415-4.55a14.18 14.18 0 00-2.919-4.064c-1.238-1.226-2.373-2.031-3.954-2.807A14.754 14.754 0 0017.88.123c-.737-.112-2.746-.162-3.515-.088zm-2.452 4.933c.776.188 1.43.544 2.064 1.123.6.55.99 1.327 1.145 2.294.091.563.045 1.674-.093 2.245a4.505 4.505 0 00-.107.562c-.006.129.652.72 4.661 4.186 2.568 2.22 4.756 4.133 4.864 4.253.108.12.235.31.284.422.121.283.165 1.02.084 1.41-.262 1.26-1.174 1.967-2.53 1.961-.579-.002-.912-.101-1.21-.358-.068-.059-1.974-2.249-4.237-4.867l-4.114-4.76-.549.145c-.463.123-.688.146-1.458.15-1.037.007-1.437-.07-2.173-.417-.855-.404-1.802-1.545-2.194-2.646-.168-.47-.182-.568-.178-1.244.002-.473.033-.82.087-.978l.084-.244 1.26 1.051c.692.578 1.3 1.05 1.35 1.05.243-.007 2.402-.28 2.452-.311.032-.02.075-.387.097-.816.021-.429.053-.965.07-1.19l.032-.412-1.058-1.262-1.058-1.262.247-.078c.305-.096 1.028-.167 1.422-.14.162.012.502.072.756.133zm12.055 1.654c.336.33.625.66.643.73a.716.716 0 01-.031.325c-.081.245-1.436 1.911-1.624 1.997-.11.05-.2.04-.417-.042l-.276-.106-1.619 1.658-1.619 1.658-.666-.576-.666-.576.197-.171c.108-.095.879-.847 1.713-1.672l1.518-1.5-.094-.196c-.121-.254-.118-.444.01-.589.123-.139 1.639-1.372 1.805-1.469a.777.777 0 01.317-.07c.175-.001.274.072.81.6zm-10.145 10.47c.911 1.05 1.668 1.943 1.684 1.982.015.04-1.063 1.156-2.396 2.481-2.214 2.203-2.456 2.425-2.805 2.583-.336.151-.448.172-.94.172-.777 0-1.142-.175-1.907-.915-.937-.907-1.18-1.392-1.134-2.264.02-.392.061-.553.221-.881.177-.363.42-.627 2.462-2.676l2.267-2.274.381-.053.447-.06c.036-.003.81.853 1.72 1.904z"/><defs><radialGradient id="ma" cx="0" cy="0" r="1" gradientUnits="userSpaceOnUse" gradientTransform="matrix(44.1892 69.13049 -293.04984 187.32168 -11.725 -25.29)"><stop stop-color="#E92FED"/><stop offset="1" stop-color="#971AB6"/></radialGradient></defs></svg><svg viewBox="0 0 36 44" id="shield" xmlns="http://www.w3.org/2000/svg"><path fill-rule="evenodd" clip-rule="evenodd" d="M15.735 1.433c-2.149 1.615-5.44 3.377-7.987 4.277-1.63.576-2.69.786-4.41.877-1.346.07-2.483.255-2.802.455L0 7.378v9.415c0 10.204.077 10.973 1.36 13.509 1.93 3.809 6.18 7.98 10.711 10.508 2.035 1.135 5.233 2.47 5.915 2.47.685 0 3.583-1.184 5.617-2.295 4.7-2.568 9.103-6.836 11.059-10.721 1.233-2.45 1.33-3.438 1.334-13.548L36 7.394l-.53-.37c-.359-.25-1.076-.37-2.221-.37-3.747 0-9.608-2.44-13.745-5.723-1.232-.978-1.923-.886-3.769.502zm5.287 2.213c3.962 2.517 8.333 4.147 11.717 4.37l2.103.137-.082 9.18c-.08 8.88-.1 9.23-.634 10.726-1.211 3.397-4.758 7.55-8.738 10.229-2.185 1.47-6.591 3.625-7.414 3.625-.921 0-6.26-2.744-8.328-4.28-3.654-2.714-6.772-6.544-7.795-9.574-.494-1.464-.526-2.033-.605-10.726l-.084-9.18 2.101-.138c2.534-.166 5.33-1.005 8.3-2.492 2.075-1.038 5.956-3.472 6.223-3.903.072-.116.525.1 1.006.478a34.004 34.004 0 002.23 1.548zm5.084 8.751c-.262.142-3.072 2.833-6.243 5.98L14.098 24.1l-2.174-2.064c-1.363-1.294-2.367-2.063-2.692-2.063-.704 0-3.272 2.7-3.272 3.44 0 .406 1.014 1.511 3.804 4.146 3.042 2.872 3.938 3.592 4.472 3.592.558 0 1.906-1.236 8.236-7.553 5.093-5.082 7.568-7.715 7.568-8.048 0-.477-2.819-3.434-3.258-3.419-.11.004-.414.124-.676.266zM21.42 22.745l-7.198 7.183-3.409-3.222c-3.706-3.503-3.644-3.374-2.27-4.678l.716-.68 2.442 2.306 2.442 2.306 6.215-6.2 6.215-6.2 1.023 1 1.022 1.001-7.198 7.184z"/></svg><svg viewBox="0 0 19 16" id="swiper-arrow" xmlns="http://www.w3.org/2000/svg"><path opacity=".8" d="M.293 7.293a1 1 0 000 1.414l6.364 6.364a1 1 0 001.414-1.414L2.414 8l5.657-5.657A1 1 0 006.657.93L.293 7.293zM19 7H1v2h18V7z"/></svg><svg viewBox="0 0 20 20" id="teleg" xmlns="http://www.w3.org/2000/svg"><path fill-rule="evenodd" clip-rule="evenodd" d="M9.381.02a14.09 14.09 0 00-1.518.2 9.666 9.666 0 00-6.21 4.17C.62 5.94.052 7.797.004 9.777c-.027 1.095.057 1.86.313 2.852.839 3.255 3.313 5.84 6.603 6.895 1.9.61 4.09.635 5.959.069 2.349-.712 4.292-2.156 5.624-4.178 1.025-1.558 1.503-3.242 1.496-5.273-.006-1.537-.255-2.86-.796-4.228-.814-2.058-2.46-3.784-4.617-4.844a9.504 9.504 0 00-1.938-.733A10.392 10.392 0 009.381.019zm1.98.912c2.012.313 3.909 1.26 5.293 2.643.948.949 1.555 1.955 1.99 3.303.58 1.794.677 3.74.274 5.464-.358 1.529-1.197 2.976-2.407 4.148-.498.483-.82.742-1.398 1.128a9.413 9.413 0 01-3.57 1.411c-2.915.502-6.003-.488-8.106-2.6-2.144-2.151-3.03-5.225-2.398-8.307.37-1.802 1.132-3.268 2.37-4.557a8.716 8.716 0 012.764-1.926c.816-.35 1.886-.634 2.714-.72l.46-.049c.308-.033 1.678.01 2.014.062zm2.953 4.382c-.701.258-10.844 4.322-10.928 4.38-.117.078-.206.206-.217.314-.018.17.008.238.145.374.12.118.234.178.64.335l1.349.521c.516.2.889.363.943.414.1.093.105.11.594 1.947.156.586.32 1.13.364 1.21.06.112.113.157.223.195.133.046.156.045.313-.022.092-.039.515-.32.94-.624.423-.305.79-.546.815-.537.025.01.697.459 1.493.998.797.54 1.498 1.001 1.558 1.027.23.097.477.028.575-.162.066-.129.02.11 1.195-6.052.197-1.031.442-2.292.545-2.802.103-.509.186-1.014.186-1.122 0-.185-.008-.204-.138-.328-.116-.11-.16-.13-.281-.13-.08 0-.22.03-.314.064zm-1.93 1.86l-2.54 2.442-2.457 2.363-.076-.286-.111-.423c-.054-.205-.156-.348-.301-.422a12.97 12.97 0 00-.727-.29 99.564 99.564 0 01-.935-.356L4.9 10.07l2.898-1.153 3.769-1.501c.479-.192.877-.343.886-.336.008.007-.023.05-.069.093zm1.213 1.23c-.137.713-.46 2.402-.717 3.753-.257 1.35-.472 2.46-.476 2.465-.008.008-.625-.407-3.129-2.105l-.636-.431 2.597-2.497c1.428-1.372 2.6-2.492 2.603-2.488.003.004-.106.59-.242 1.303zm-4.974 4.811c.006.004-.163.133-.375.285l-.385.278-.038-.145-.163-.613a7.816 7.816 0 01-.124-.505c0-.028.75.456 1.085.7z"/></svg><svg viewBox="0 0 20 20" id="whatsapp" xmlns="http://www.w3.org/2000/svg"><path fill-rule="evenodd" clip-rule="evenodd" d="M9.22.012c-.935.086-2.009.333-2.812.647C3.015 1.984.648 4.946.088 8.565c-.109.701-.11 2.189-.002 2.851.172 1.056.534 2.177.988 3.063l.209.407-.655 2.342C.16 18.895-.02 19.602.002 19.685a.45.45 0 00.31.314c.075.018.929-.174 2.547-.573l2.435-.601.429.201a10.69 10.69 0 002.866.888c.582.096 2.097.109 2.701.023 2.202-.312 4.222-1.3 5.743-2.81a10.026 10.026 0 002.664-4.613c.242-.943.303-1.452.303-2.513s-.061-1.57-.303-2.514c-.613-2.39-2.154-4.527-4.246-5.89-.518-.336-1.583-.859-2.157-1.058a11.482 11.482 0 00-1.831-.446C11.04.027 9.615-.024 9.22.012zM10.884.9c3.72.368 6.877 2.976 7.899 6.526.267.926.346 1.517.346 2.574 0 .784-.016 1.028-.1 1.502-.373 2.107-1.347 3.875-2.921 5.303-1.261 1.145-2.834 1.901-4.599 2.214-.815.144-2.19.144-3.003 0a8.942 8.942 0 01-2.565-.838c-.283-.14-.542-.256-.576-.256-.035 0-1.017.236-2.183.523a96.85 96.85 0 01-2.128.512c-.004-.006.244-.903.55-1.993.308-1.09.56-2.035.56-2.1 0-.066-.128-.375-.284-.686-.648-1.29-.954-2.452-1.01-3.833a9.125 9.125 0 014.649-8.31A9.16 9.16 0 0110.883.9zm-4.93 3.947a1.9 1.9 0 00-.386.205c-.273.195-.69.732-.883 1.137-.26.546-.32.828-.316 1.481.005.652.106 1.072.413 1.72.405.852 1.311 2.05 2.293 3.027 1.259 1.254 2.355 1.924 4.107 2.507.784.261 1.145.32 1.754.286.566-.032.986-.16 1.488-.456.847-.498 1.213-1.136 1.22-2.126.003-.376-.004-.41-.127-.583-.12-.169-.223-.228-1.22-.698-.599-.282-1.184-.544-1.3-.582-.486-.157-.689-.052-1.252.648-.23.287-.448.539-.482.56-.085.054-.859-.312-1.363-.645-.648-.426-1.569-1.39-1.92-2.009l-.08-.135.268-.311c.147-.171.329-.433.404-.582.227-.45.212-.54-.286-1.73a38.756 38.756 0 00-.529-1.224c-.124-.247-.355-.455-.573-.516-.252-.07-1.002-.053-1.232.027zM7.4 6.69l.452 1.068c.03.064-.192.392-.47.696-.53.581-.515.822.114 1.713a7.216 7.216 0 003 2.476c.66.3.81.321 1.108.159.216-.12.645-.573.956-1.013.069-.097.15-.177.18-.177.07-.001.858.357 1.551.704l.518.259-.028.21c-.05.37-.157.655-.315.83-.204.225-.558.455-.919.597-.265.105-.353.116-.862.118l-.566.001-.666-.229c-1.226-.42-1.847-.737-2.702-1.379-1.3-.976-2.762-2.726-3.253-3.896-.172-.41-.284-.892-.284-1.222 0-.36.136-.907.29-1.172.136-.232.563-.694.69-.748.048-.02.242-.032.43-.027l.345.009L7.4 6.69z"/></svg></svg>